<svg width="24" height="24" viewBox="0 0 24 24" fill="none" xmlns="http://www.w3.org/2000/svg">
<path d="M17.9241 6.61722C17.9727 6.73425 17.9996 6.8625 18 6.997C18 6.998 18 6.99969 18 7.00069V15C18 15.5523 17.5523 16 17 16C16.4477 16 16 15.5523 16 15V9.41421L7.70711 17.7071C7.31658 18.0976 6.68342 18.0976 6.29289 17.7071C5.90237 17.3166 5.90237 16.6834 6.29289 16.2929L14.5858 8H9C8.44772 8 8 7.55228 8 7C8 6.44772 8.44772 6 9 6H17C17.2751 6 17.5242 6.11106 17.705 6.29078C17.7064 6.29219 17.7078 6.2936 17.7092 6.29502C17.804 6.3904 17.8757 6.50014 17.9241 6.61722Z" fill="currentColor"/>
</svg>
