<svg width="24" height="24" viewBox="0 0 24 24" fill="none" xmlns="http://www.w3.org/2000/svg">
<path fill-rule="evenodd" clip-rule="evenodd" d="M17.9834 17.3107C13.3317 15.6585 10 11.2203 10 6C10 5.39571 10.0448 4.80105 10.1315 4.21939C6.61451 5.06091 4 8.22513 4 12C4 16.4183 7.58172 20 12 20C14.3786 20 16.5161 18.9628 17.9834 17.3107ZM19.803 15.7579C20.4714 15.9077 20.8972 16.6208 20.5401 17.2054C18.7837 20.0807 15.616 22 12 22C6.47715 22 2 17.5228 2 12C2 6.47715 6.47715 2 12 2C12.4017 2 12.6526 2.41625 12.524 2.79683C12.1842 3.80243 12 4.8797 12 6C12 10.768 15.337 14.7567 19.803 15.7579Z" fill="currentColor"/>
</svg>
