<svg xmlns="http://www.w3.org/2000/svg" width="24" height="24" fill="currentColor" viewBox="0 0 24 24">
  <path d="M9 18h6a.97.97 0 0 0 .713-.288A.968.968 0 0 0 16 17a.968.968 0 0 0-.287-.712A.968.968 0 0 0 15 16H9a.967.967 0 0 0-.713.288A.968.968 0 0 0 8 17c0 .283.096.52.287.712.192.192.43.288.713.288Zm0-4h6c.283 0 .52-.096.713-.287A.968.968 0 0 0 16 13a.968.968 0 0 0-.287-.713A.968.968 0 0 0 15 12H9a.967.967 0 0 0-.713.287A.968.968 0 0 0 8 13c0 .283.096.52.287.713.192.191.43.287.713.287Zm-3 8c-.55 0-1.02-.196-1.412-.587A1.926 1.926 0 0 1 4 20V4c0-.55.196-1.02.588-1.413A1.926 1.926 0 0 1 6 2h7.175a1.975 1.975 0 0 1 1.4.575l4.85 4.85a1.975 1.975 0 0 1 .575 1.4V20c0 .55-.196 1.02-.587 1.413A1.926 1.926 0 0 1 18 22H6Zm7-14V4H6v16h12V9h-4a.968.968 0 0 1-.713-.287A.967.967 0 0 1 13 8Z"/>
</svg>
