<svg width="24" height="24" viewBox="0 0 24 24" fill="none" xmlns="http://www.w3.org/2000/svg">
<path d="M5 3H11C11.5523 3 12 3.44772 12 4C12 4.55228 11.5523 5 11 5H5V19H19V13C19 12.4477 19.4477 12 20 12C20.5523 12 21 12.4477 21 13V19C21 20.1046 20.1046 21 19 21H5C3.89543 21 3 20.1046 3 19V5C3 3.89543 3.89543 3 5 3Z" fill="currentColor"/>
<path d="M20.233 3.76701C19.6472 3.18122 18.6975 3.18122 18.1117 3.76701L17.6571 4.22158L19.7784 6.3429L20.233 5.88833C20.8188 5.30254 20.8188 4.35279 20.233 3.76701Z" fill="currentColor"/>
<path d="M19.0208 7.10051L16.8995 4.97919L8 13.8787V16H10.1213L19.0208 7.10051Z" fill="currentColor"/>
</svg>
