<svg width="48" height="48" viewBox="0 0 48 48" fill="none" xmlns="http://www.w3.org/2000/svg">
<path d="M28.4735 17.8428L38.4764 19.2963L31.2382 26.3518L32.9469 36.3143L24.0001 31.6106L15.0532 36.3143L16.7619 26.3518L9.52371 19.2963L19.5266 17.8428L24.0001 8.77859L28.4735 17.8428ZM17.5344 15.1008L7.08715 16.6188C5.44671 16.8572 4.79169 18.8731 5.97872 20.0302L13.5384 27.3991L11.7538 37.8042C11.4736 39.438 13.1885 40.6839 14.6557 39.9125L24.0001 34.9999L33.3444 39.9125C34.8116 40.6839 36.5265 39.438 36.2463 37.8042L34.4617 27.3991L42.0214 20.0302C43.2084 18.8731 42.5534 16.8572 40.913 16.6188L30.4657 15.1008L25.7935 5.63391C25.0599 4.14742 22.9402 4.14742 22.2066 5.63391L17.5344 15.1008Z" fill="currentColor"/>
</svg>
