<svg width="24" height="24" viewBox="0 0 24 24" fill="none" xmlns="http://www.w3.org/2000/svg">
<path d="M17 9C17 10.1046 16.1046 11 15 11C13.8954 11 13 10.1046 13 9C13 7.89543 13.8954 7 15 7C16.1046 7 17 7.89543 17 9Z" fill="currentColor"/>
<path d="M5 3C3.89543 3 3 3.89543 3 5V19C3 20.1046 3.89543 21 5 21H19C20.1046 21 21 20.1046 21 19V5C21 3.89543 20.1046 3 19 3H5ZM19 5V19L5 19V15.8284L9 11.8284L16.1716 18.9999L19 19L10.4142 10.4142C9.63316 9.63311 8.36684 9.63311 7.58579 10.4142L5 12.9999V5H19Z" fill="currentColor"/>
</svg>
