<svg xmlns="http://www.w3.org/2000/svg" width="24" height="24" fill="currentColor" viewBox="0 0 24 24">
  <path d="M9 6a1 1 0 0 1 1-1h10a1 1 0 1 1 0 2H10a1 1 0 0 1-1-1Zm0 6a1 1 0 0 1 1-1h10a1 1 0 1 1 0 2H10a1 1 0 0 1-1-1Zm0 6a1 1 0 0 1 1-1h10a1 1 0 1 1 0 2H10a1 1 0 0 1-1-1ZM5.604 5.089A.75.75 0 0 1 6 5.75v4.5a.75.75 0 0 1-1.5 0V7.151l-.334.223a.75.75 0 0 1-.832-1.248l1.5-1a.75.75 0 0 1 .77-.037ZM5 13a2.02 2.02 0 0 0-1.139.321 1.846 1.846 0 0 0-.626.719 2.286 2.286 0 0 0-.234.921v.023l-.001.01v.005l.75.001H3a.75.75 0 0 0 1.5.01V15a.789.789 0 0 1 .077-.29.35.35 0 0 1 .116-.14c.04-.027.126-.07.307-.07s.267.043.307.07a.35.35 0 0 1 .116.14.788.788 0 0 1 .076.29v.008a.532.532 0 0 1-.14.352l-2.161 2.351a.748.748 0 0 0-.198.523v.016c0 .414.336.75.75.75h2.5a.75.75 0 0 0 0-1.5h-.82l1.034-1.124C6.809 16 7 15.51 7 15h-.75H7v-.039l-.004-.068a2.285 2.285 0 0 0-.231-.853 1.846 1.846 0 0 0-.626-.719A2.02 2.02 0 0 0 5 13Zm-.5 2.003V15v.01-.008Z"/>
</svg>
