<svg xmlns="http://www.w3.org/2000/svg" width="24" height="24" fill="currentColor" viewBox="0 0 24 24">
  <path d="M8 8v-.006l6.831 6.832-.002.002 1.414 1.415.003-.003 1.414 1.414-.003.003L20.5 20.5a1 1 0 0 1-1.414 1.414l-3.022-3.022A7.949 7.949 0 0 1 13 19.938V21a1 1 0 0 1-2 0v-1.062A8.001 8.001 0 0 1 4 12a1 1 0 1 1 2 0 6 6 0 0 0 8.587 5.415l-1.55-1.55A4.005 4.005 0 0 1 8 12v-1.172L2.086 4.914A1 1 0 0 1 3.5 3.5L8 8Zm9.417 6.583 1.478 1.477A7.963 7.963 0 0 0 20 12a1 1 0 0 0-2 0c0 .925-.21 1.8-.583 2.583ZM8.073 5.238l7.793 7.793c.087-.329.134-.674.134-1.031V6a4 4 0 0 0-7.927-.762Z"/>
</svg>
