<svg width="24" height="24" viewBox="0 0 24 24" fill="none" xmlns="http://www.w3.org/2000/svg">
<path fill-rule="evenodd" clip-rule="evenodd" d="M8 7.99986V7.9943L10 9.9943V9.99986L13.4143 13.4141L13.4171 13.4114L14.8313 14.8256L14.8285 14.8284L16.2427 16.2426L16.2455 16.2398L17.6597 17.654L17.6569 17.6568L20.5001 20.5C20.8906 20.8905 20.8906 21.5236 20.5001 21.9142C20.1096 22.3047 19.4764 22.3047 19.0859 21.9142L16.064 18.8923C15.1448 19.4355 14.1076 19.8 13 19.9381V21C13 21.5523 12.5523 22 12 22C11.4477 22 11 21.5523 11 21V19.9381C7.05369 19.446 4 16.0796 4 12C4 11.4477 4.44772 11 5 11C5.55228 11 6 11.4477 6 12C6 15.3137 8.68629 18 12 18C12.9263 18 13.8036 17.7901 14.5869 17.4152L13.0362 15.8645C12.7057 15.9529 12.3584 16 12 16C9.79086 16 8 14.2091 8 12V10.8283L2.08586 4.91414C1.69534 4.52361 1.69534 3.89045 2.08586 3.49992C2.47639 3.1094 3.10955 3.1094 3.50008 3.49993L8 7.99986Z" fill="currentColor"/>
<path d="M14 6V11.1659L15.8657 13.0316C15.9533 12.7025 16 12.3567 16 12V6C16 3.79086 14.2091 2 12 2C10.0513 2 8.42811 3.39346 8.07243 5.2383L10 7.16587V6C10 4.89543 10.8954 4 12 4C13.1046 4 14 4.89543 14 6Z" fill="currentColor"/>
<path d="M17.4171 14.583L18.8945 16.0604C19.597 14.8701 20 13.4821 20 12C20 11.4477 19.5523 11 19 11C18.4477 11 18 11.4477 18 12C18 12.9248 17.7908 13.8007 17.4171 14.583Z" fill="currentColor"/>
</svg>
