<svg width="24" height="24" viewBox="0 0 24 24" fill="none" xmlns="http://www.w3.org/2000/svg">
<path d="M4.91707 2.08293L21.9171 19.0829C22.3076 19.4735 22.3076 20.1066 21.9171 20.4972C21.5265 20.8877 20.8934 20.8877 20.5029 20.4972L19.0058 19.0001H4.41424C3.52333 19.0001 3.07716 17.9229 3.70713 17.293L5.00002 16.0001V10.0001C5.00002 10.0001 5.00002 7.96599 6.0965 6.0908L3.50285 3.49715C3.11233 3.10662 3.11233 2.47346 3.50285 2.08293C3.89338 1.69241 4.52654 1.69241 4.91707 2.08293Z" fill="currentColor"/>
<path d="M19 13.3491L9.13618 3.4852C9.92908 3.1812 10.874 3.00006 12 3.00006C19 3.00006 19 10.0001 19 10.0001V13.3491Z" fill="currentColor"/>
<path d="M10 20.0001H14C14 21.1046 13.1046 22.0001 12 22.0001C10.8954 22.0001 10 21.1046 10 20.0001Z" fill="currentColor"/>
</svg>
