<svg width="24" height="24" viewBox="0 0 24 24" fill="none" xmlns="http://www.w3.org/2000/svg">
<path d="M5.7688 2.85683C5.4493 2.54322 5.67135 2 6.11905 2H17.8809C18.3286 2 18.5507 2.54322 18.2312 2.85683L16.1498 4.89988C16.054 4.99391 16 5.12249 16 5.25671V9.74371C16 9.87768 16.0538 10.0061 16.1492 10.1L19.8508 13.7437C19.9462 13.8377 20 13.9661 20 14.1V15.5C20 15.7761 19.7761 16 19.5 16H13V22C13 22.5523 12.5523 23 12 23C11.4477 23 11 22.5523 11 22L11 16H4.5C4.22386 16 4 15.7761 4 15.5V14.1C4 13.9661 4.05377 13.8377 4.14924 13.7437L7.85076 10.1C7.94623 10.0061 8 9.87768 8 9.74371V5.25671C8 5.12249 7.94604 4.99391 7.85025 4.89988L5.7688 2.85683Z" fill="currentColor"/>
</svg>
