<svg xmlns="http://www.w3.org/2000/svg" width="24" height="24" fill="currentColor" viewBox="0 0 24 24">
  <path fill-rule="evenodd" d="M6.119 2a.5.5 0 0 0-.35.857L7.85 4.9a.5.5 0 0 1 .15.357v4.487a.5.5 0 0 1-.15.356l-3.7 3.644A.5.5 0 0 0 4 14.1v1.4a.5.5 0 0 0 .5.5H11v6a1 1 0 1 0 2 0v-6h6.5a.5.5 0 0 0 .5-.5v-1.4a.5.5 0 0 0-.15-.356l-3.7-3.644a.5.5 0 0 1-.15-.356V5.257a.5.5 0 0 1 .15-.357l2.081-2.043a.5.5 0 0 0-.35-.857H6.119ZM10 4h4v5.744a2.5 2.5 0 0 0 .746 1.781L17.26 14H6.74l2.514-2.475A2.5 2.5 0 0 0 10 9.744V4Z" clip-rule="evenodd"/>
</svg>
