<svg width="24" height="24" viewBox="0 0 24 24" fill="none" xmlns="http://www.w3.org/2000/svg">
<path fill-rule="evenodd" clip-rule="evenodd" d="M14.7125 14.7125C14.5208 14.9042 14.2833 15 14 15H10C9.71667 15 9.47917 14.9042 9.2875 14.7125C9.09583 14.5208 9 14.2833 9 14V11C9 10.7167 9.09583 10.4792 9.2875 10.2875C9.47917 10.0958 9.71667 10 10 10V9C10 8.45 10.1958 7.97917 10.5875 7.5875C10.9792 7.19583 11.45 7 12 7C12.55 7 13.0208 7.19583 13.4125 7.5875C13.8042 7.97917 14 8.45 14 9V10C14.2833 10 14.5208 10.0958 14.7125 10.2875C14.9042 10.4792 15 10.7167 15 11V14C15 14.2833 14.9042 14.5208 14.7125 14.7125ZM11 9V10H13V9C13 8.71667 12.9042 8.47917 12.7125 8.2875C12.5208 8.09583 12.2833 8 12 8C11.7167 8 11.4792 8.09583 11.2875 8.2875C11.0958 8.47917 11 8.71667 11 9Z" fill="currentColor"/>
<path fill-rule="evenodd" clip-rule="evenodd" d="M12.8944 2.44723C12.3314 2.1657 11.6686 2.1657 11.1056 2.44723L5.10557 5.44723C4.428 5.78601 4 6.47854 4 7.23608V12C4 18.7425 9.77252 21.2458 11.5106 21.8468C11.8303 21.9573 12.1697 21.9573 12.4894 21.8468C14.2275 21.2458 20 18.7425 20 12V7.23608C20 6.47854 19.572 5.78601 18.8944 5.44723L12.8944 2.44723ZM6 7.23608L12 4.23608L18 7.23608V12C18 17.1564 13.7613 19.2544 12 19.8982C10.2387 19.2544 6 17.1564 6 12V7.23608Z" fill="currentColor"/>
</svg>
