<svg width="24" height="24" viewBox="0 0 24 24" fill="none" xmlns="http://www.w3.org/2000/svg">
<path fill-rule="evenodd" clip-rule="evenodd" d="M4 18C3.45 18 2.97917 17.8042 2.5875 17.4125C2.19583 17.0208 2 16.55 2 16V5C2 4.45 2.19583 3.97917 2.5875 3.5875C2.97917 3.19583 3.45 3 4 3H20C20.55 3 21.0208 3.19583 21.4125 3.5875C21.8042 3.97917 22 4.45 22 5V16C22 16.55 21.8042 17.0208 21.4125 17.4125C21.0208 17.8042 20.55 18 20 18H4ZM12 7C11.8667 7 11.7417 7.02083 11.625 7.0625C11.5083 7.10417 11.4 7.175 11.3 7.275L8.69999 9.875C8.51665 10.0583 8.42499 10.2917 8.42499 10.575C8.42499 10.8583 8.51665 11.0917 8.69999 11.275C8.88332 11.4583 9.11665 11.55 9.39999 11.55C9.68332 11.55 9.91665 11.4583 10.1 11.275L11 10.375V13.575C11 13.8583 11.0958 14.0958 11.2875 14.2875C11.4792 14.4792 11.7167 14.575 12 14.575C12.2833 14.575 12.5208 14.4792 12.7125 14.2875C12.9042 14.0958 13 13.8583 13 13.575V10.375L13.9 11.275C14.0833 11.4583 14.3167 11.55 14.6 11.55C14.8833 11.55 15.1167 11.4583 15.3 11.275C15.4833 11.0917 15.575 10.8583 15.575 10.575C15.575 10.2917 15.4833 10.0583 15.3 9.875L12.7 7.275C12.6 7.175 12.4917 7.10417 12.375 7.0625C12.2583 7.02083 12.1333 7 12 7Z" fill="currentColor"/>
<path d="M2 21C1.71667 21 1.47917 20.9042 1.2875 20.7125C1.09583 20.5208 1 20.2833 1 20C1 19.7167 1.09583 19.4792 1.2875 19.2875C1.47917 19.0958 1.71667 19 2 19H22C22.2833 19 22.5208 19.0958 22.7125 19.2875C22.9042 19.4792 23 19.7167 23 20C23 20.2833 22.9042 20.5208 22.7125 20.7125C22.5208 20.9042 22.2833 21 22 21H2Z" fill="currentColor"/>
</svg>
