<svg width="24" height="24" viewBox="0 0 24 24" fill="none" xmlns="http://www.w3.org/2000/svg">
<path d="M13 5C13 2.79086 14.7909 1 17 1C19.2091 1 21 2.79086 21 5C21 7.20914 19.2091 9 17 9C16.0076 9 15.0997 8.63863 14.4005 8.0403L10.7473 10.5976C10.9107 11.034 11 11.5066 11 12C11 12.4934 10.9106 12.966 10.7472 13.4024L14.4005 15.9597C15.0997 15.3614 16.0076 15 17 15C19.2091 15 21 16.7909 21 19C21 21.2091 19.2091 23 17 23C14.7909 23 13 21.2091 13 19C13 18.5066 13.0893 18.034 13.2527 17.5976L9.59946 15.0403C8.90032 15.6386 7.99236 16 7 16C4.79086 16 3 14.2091 3 12C3 9.79086 4.79086 8 7 8C7.99238 8 8.90035 8.36138 9.59949 8.95973L13.2528 6.40244C13.0894 5.96603 13 5.49345 13 5ZM17 3C15.8954 3 15 3.89543 15 5C15 6.10457 15.8954 7 17 7C18.1046 7 19 6.10457 19 5C19 3.89543 18.1046 3 17 3ZM7 10C5.89543 10 5 10.8954 5 12C5 13.1046 5.89543 14 7 14C8.10457 14 9 13.1046 9 12C9 10.8954 8.10457 10 7 10ZM17 17C15.8954 17 15 17.8954 15 19C15 20.1046 15.8954 21 17 21C18.1046 21 19 20.1046 19 19C19 17.8954 18.1046 17 17 17Z" fill="currentColor"/>
</svg>
