<svg width="24" height="24" viewBox="0 0 24 24" fill="none" xmlns="http://www.w3.org/2000/svg">
<path d="M11.625 7.06245C11.7417 7.02078 11.8667 6.99995 12 6.99995C12.1333 6.99995 12.2583 7.02078 12.375 7.06245C12.4917 7.10412 12.6 7.17495 12.7 7.27495L15.3 9.87495C15.4833 10.0583 15.575 10.2916 15.575 10.575C15.575 10.8583 15.4833 11.0916 15.3 11.275C15.1167 11.4583 14.8833 11.55 14.6 11.55C14.3167 11.55 14.0833 11.4583 13.9 11.275L13 10.375V13.575C13 13.8583 12.9042 14.0958 12.7125 14.2875C12.5208 14.4791 12.2833 14.575 12 14.575C11.7167 14.575 11.4792 14.4791 11.2875 14.2875C11.0958 14.0958 11 13.8583 11 13.575V10.375L10.1 11.275C9.91668 11.4583 9.68335 11.55 9.40001 11.55C9.11668 11.55 8.88335 11.4583 8.70001 11.275C8.51668 11.0916 8.42501 10.8583 8.42501 10.575C8.42501 10.2916 8.51668 10.0583 8.70001 9.87495L11.3 7.27495C11.4 7.17495 11.5083 7.10412 11.625 7.06245Z" fill="currentColor"/>
<path fill-rule="evenodd" clip-rule="evenodd" d="M2.5875 17.4125C2.97917 17.8042 3.45 18 4 18H20C20.55 18 21.0208 17.8042 21.4125 17.4125C21.8042 17.0208 22 16.55 22 16V5C22 4.45 21.8042 3.97917 21.4125 3.5875C21.0208 3.19583 20.55 3 20 3H4C3.45 3 2.97917 3.19583 2.5875 3.5875C2.19583 3.97917 2 4.45 2 5V16C2 16.55 2.19583 17.0208 2.5875 17.4125ZM20 16H4V5H20V16Z" fill="currentColor"/>
<path d="M1.2875 20.7125C1.47917 20.9042 1.71667 21 2 21H22C22.2833 21 22.5208 20.9042 22.7125 20.7125C22.9042 20.5208 23 20.2833 23 20C23 19.7167 22.9042 19.4792 22.7125 19.2875C22.5208 19.0958 22.2833 19 22 19H2C1.71667 19 1.47917 19.0958 1.2875 19.2875C1.09583 19.4792 1 19.7167 1 20C1 20.2833 1.09583 20.5208 1.2875 20.7125Z" fill="currentColor"/>
</svg>
