<svg xmlns="http://www.w3.org/2000/svg" width="24" height="24" fill="currentColor" viewBox="0 0 24 24">
  <path fill-rule="evenodd" d="M2.587 20.413C2.98 20.803 3.45 21 4 21h16c.55 0 1.02-.196 1.413-.587A1.93 1.93 0 0 0 22 19V7c0-.55-.196-1.02-.587-1.412A1.926 1.926 0 0 0 20 5h-3.15L15.6 3.65a2.009 2.009 0 0 0-.662-.475A1.952 1.952 0 0 0 14.124 3h-4.25a2.011 2.011 0 0 0-1.475.65L7.15 5H4c-.55 0-1.02.196-1.413.588A1.926 1.926 0 0 0 2 7v12c0 .55.196 1.02.587 1.413ZM12 16.5a3.5 3.5 0 1 0 0-7 3.5 3.5 0 0 0 0 7Z" clip-rule="evenodd"/>
</svg>
