<svg width="24" height="24" viewBox="0 0 24 24" fill="none" xmlns="http://www.w3.org/2000/svg">
<path d="M19 14C18.7167 14 18.4792 13.9042 18.2875 13.7125C18.0958 13.5208 18 13.2833 18 13V11H16C15.7167 11 15.4792 10.9042 15.2875 10.7125C15.0958 10.5208 15 10.2833 15 10C15 9.71667 15.0958 9.47917 15.2875 9.2875C15.4792 9.09583 15.7167 9 16 9H18V7C18 6.71667 18.0958 6.47917 18.2875 6.2875C18.4792 6.09583 18.7167 6 19 6C19.2833 6 19.5208 6.09583 19.7125 6.2875C19.9042 6.47917 20 6.71667 20 7V9H22C22.2833 9 22.5208 9.09583 22.7125 9.2875C22.9042 9.47917 23 9.71667 23 10C23 10.2833 22.9042 10.5208 22.7125 10.7125C22.5208 10.9042 22.2833 11 22 11H20V13C20 13.2833 19.9042 13.5208 19.7125 13.7125C19.5208 13.9042 19.2833 14 19 14ZM9 12C7.9 12 6.95833 11.6083 6.175 10.825C5.39167 10.0417 5 9.1 5 8C5 6.9 5.39167 5.95833 6.175 5.175C6.95833 4.39167 7.9 4 9 4C10.1 4 11.0417 4.39167 11.825 5.175C12.6083 5.95833 13 6.9 13 8C13 9.1 12.6083 10.0417 11.825 10.825C11.0417 11.6083 10.1 12 9 12ZM2 20C1.71667 20 1.47917 19.9042 1.2875 19.7125C1.09583 19.5208 1 19.2833 1 19V17.2C1 16.6333 1.14583 16.1125 1.4375 15.6375C1.72917 15.1625 2.11667 14.8 2.6 14.55C3.63333 14.0333 4.68333 13.6458 5.75 13.3875C6.81667 13.1292 7.9 13 9 13C10.1 13 11.1833 13.1292 12.25 13.3875C13.3167 13.6458 14.3667 14.0333 15.4 14.55C15.8833 14.8 16.2708 15.1625 16.5625 15.6375C16.8542 16.1125 17 16.6333 17 17.2V19C17 19.2833 16.9042 19.5208 16.7125 19.7125C16.5208 19.9042 16.2833 20 16 20H2Z" fill="currentColor"/>
</svg>
