<svg xmlns="http://www.w3.org/2000/svg" width="24" height="24" fill="currentColor" viewBox="0 0 24 24">
  <path d="M8.15 21.75 6.7 19.3l-2.75-.6a.943.943 0 0 1-.6-.387.928.928 0 0 1-.175-.688L3.45 14.8l-1.875-2.15a.934.934 0 0 1-.25-.65c0-.25.084-.467.25-.65L3.45 9.2l-.275-2.825a.928.928 0 0 1 .175-.688.943.943 0 0 1 .6-.387l2.75-.6 1.45-2.45a.983.983 0 0 1 .55-.438.97.97 0 0 1 .7.038l2.6 1.1 2.6-1.1a.97.97 0 0 1 .7-.038.983.983 0 0 1 .55.438L17.3 4.7l2.75.6c.25.05.45.18.6.388.15.208.209.437.175.687L20.55 9.2l1.875 2.15c.167.183.25.4.25.65s-.083.467-.25.65L20.55 14.8l.275 2.825a.928.928 0 0 1-.175.688.943.943 0 0 1-.6.387l-2.75.6-1.45 2.45a.983.983 0 0 1-.55.438.97.97 0 0 1-.7-.038l-2.6-1.1-2.6 1.1a.97.97 0 0 1-.7.038.983.983 0 0 1-.55-.438Zm2.8-9.05L9.5 11.275A.933.933 0 0 0 8.813 11c-.275 0-.513.1-.713.3a.948.948 0 0 0-.275.7.95.95 0 0 0 .275.7l2.15 2.15c.2.2.434.3.7.3.267 0 .5-.1.7-.3l4.25-4.25c.2-.2.296-.433.288-.7a1.055 1.055 0 0 0-.288-.7 1.02 1.02 0 0 0-.712-.313.93.93 0 0 0-.713.288L10.95 12.7Z"/>
</svg>
