<svg xmlns="http://www.w3.org/2000/svg" width="24" height="24" fill="currentColor" viewBox="0 0 24 24">
  <path d="M2 8a4 4 0 0 1 4-4h10a2 2 0 0 1 2 2v4.286l3.35-2.871a1 1 0 0 1 1.65.76v7.65a1 1 0 0 1-1.65.76L18 13.715V18a2 2 0 0 1-2 2H6a4 4 0 0 1-4-4V8Zm8.7 5.15L8.5 11H9c.283 0 .52-.096.713-.287A.968.968 0 0 0 10 10a.968.968 0 0 0-.287-.713A.968.968 0 0 0 9 9H6a.968.968 0 0 0-.713.287A.968.968 0 0 0 5 10v3c0 .283.096.52.287.713.192.191.43.287.713.287s.52-.096.713-.287A.968.968 0 0 0 7 13v-.7l3 3a1.034 1.034 0 0 0 1.088.2.773.773 0 0 0 .312-.225l3.125-3.15a.918.918 0 0 0 .275-.675c0-.267-.1-.5-.3-.7a.948.948 0 0 0-.7-.275.948.948 0 0 0-.7.275l-2.4 2.4Z"/>
</svg>
