<svg xmlns="http://www.w3.org/2000/svg" width="24" height="24" fill="black" viewBox="0 0 24 24">
  <path d="M7 14c-.55 0-1.02-.196-1.412-.587A1.926 1.926 0 0 1 5 12c0-.55.196-1.02.588-1.412A1.926 1.926 0 0 1 7 10c.55 0 1.02.196 1.412.588.392.391.588.862.588 1.412 0 .55-.196 1.02-.588 1.413A1.926 1.926 0 0 1 7 14Z"/>
  <path d="M4.917 2.083a1 1 0 0 0-1.414 1.414L6.07 6.064c-1.27.18-2.377.743-3.32 1.686C1.583 8.917 1 10.333 1 12c0 1.667.583 3.083 1.75 4.25C3.917 17.417 5.333 18 7 18c1.117 0 2.13-.275 3.037-.825A6.212 6.212 0 0 0 12.2 15h1.175l1.525 1.075c.083.067.18.117.287.15a.945.945 0 0 0 .887-.15l.004-.002 4.425 4.424a1 1 0 0 0 1.414-1.414l-17-17ZM13.006 13h-2.131a4.033 4.033 0 0 1-1.412 2.15c-.709.567-1.53.85-2.463.85-1.1 0-2.042-.392-2.825-1.175C3.392 14.042 3 13.1 3 12s.392-2.042 1.175-2.825C4.958 8.392 5.9 8 7 8c.413 0 .803.055 1.172.166l2.649 2.65c.02.06.037.122.054.184h.13l2 2Zm8.144-1-1.75 1.75 1.426 1.425L23.3 12.7c.1-.1.17-.208.212-.325.042-.117.063-.242.063-.375s-.02-.258-.063-.375a.877.877 0 0 0-.212-.325l-2-2a.999.999 0 0 0-.338-.225A1.034 1.034 0 0 0 20.575 9h-5.924l2 2h3.499l1 1Z"/>
</svg>
