<svg width="24" height="24" viewBox="0 0 24 24" fill="none" xmlns="http://www.w3.org/2000/svg">
<path d="M0.295301 14.6039L2.7651 17.02C2.96197 17.2169 3.19016 17.3243 3.44966 17.3422C3.70917 17.3601 3.94631 17.2885 4.16107 17.1274L7.27517 14.765C7.41834 14.6576 7.52573 14.5323 7.59731 14.3891C7.6689 14.246 7.7047 14.0849 7.7047 13.9059L7.7047 11.6353C8.40268 11.4027 9.10962 11.2282 9.8255 11.1118C10.5414 10.9955 12 10.9373 12 10.9373C12 10.9373 13.4586 10.9955 14.1745 11.1118C14.8904 11.2282 15.5973 11.4027 16.2953 11.6353V13.9059C16.2953 14.0849 16.3311 14.246 16.4027 14.3891C16.4743 14.5323 16.5817 14.6576 16.7248 14.765L19.8389 17.1274C20.0537 17.2885 20.2908 17.3601 20.5503 17.3422C20.8098 17.3243 21.038 17.2169 21.2349 17.02L23.7047 14.6039C23.9016 14.407 24 14.1565 24 13.8522C24 13.548 23.9016 13.2974 23.7047 13.1005C22.1834 11.4719 20.4116 10.2146 18.3893 9.32874C16.3669 8.44283 14.2371 7.99988 12 7.99988C9.76286 7.99988 7.63311 8.43836 5.61074 9.31531C3.58837 10.1923 1.81655 11.454 0.295301 13.1005C0.0984333 13.2974 0 13.548 0 13.8522C0 14.1565 0.0984334 14.407 0.295301 14.6039Z" fill="black"/>
</svg>
