<svg xmlns="http://www.w3.org/2000/svg" width="24" height="24" fill="black" viewBox="0 0 24 24"><path fill-rule="evenodd" d="M13 2a2 2 0 0 1 2 2v4h6a2 2 0 0 1 2 2v12.586c0 .89-1.077 1.337-1.707.707L19 21h-8a2 2 0 0 1-2-2v-4H5l-2.293 2.293c-.63.63-1.707.184-1.707-.707V4a2 2 0 0 1 2-2zm2.5 10.125H12v1.25h4.37c-.031.73-.325 1.457-.871 2.151a4.4 4.4 0 0 1-.613-1.026h-1.33c.202.69.57 1.335 1.067 1.932-.524.448-1.162.873-1.912 1.263l.578 1.11a11.3 11.3 0 0 0 2.21-1.483c.633.553 1.382 1.05 2.212 1.483l.578-1.11c-.75-.39-1.388-.815-1.912-1.263.758-.912 1.213-1.939 1.245-3.057H20v-1.25h-3.25V10.25H15.5zM3 14.172l.586-.586A2 2 0 0 1 5 13h4v-2.47H6.96L6.563 12H5l2.031-7H8.97l.96 3.312A2 2 0 0 1 11 8h2V4H3zm4.306-4.927h1.386l-.67-2.481h-.047z" clip-rule="evenodd"/></svg>