<svg xmlns="http://www.w3.org/2000/svg" width="24" height="24" fill="black" viewBox="0 0 24 24">
  <path d="M4 19a.967.967 0 0 1-.712-.288A.968.968 0 0 1 3 18c0-.283.096-.52.288-.712A.967.967 0 0 1 4 17h16c.283 0 .52.096.712.288.192.191.288.429.288.712s-.096.52-.288.712A.968.968 0 0 1 20 19H4Zm8-4a.968.968 0 0 1-.713-.287A.968.968 0 0 1 11 14c0-.283.096-.52.287-.713A.968.968 0 0 1 12 13h8a.97.97 0 0 1 .712.287c.192.192.288.43.288.713s-.096.52-.288.713A.968.968 0 0 1 20 15h-8Zm0-4a.968.968 0 0 1-.713-.287A.968.968 0 0 1 11 10c0-.283.096-.52.287-.713A.968.968 0 0 1 12 9h8a.97.97 0 0 1 .712.287c.192.192.288.43.288.713s-.096.52-.288.713A.968.968 0 0 1 20 11h-8Zm0-4a.968.968 0 0 1-.713-.287A.967.967 0 0 1 11 6c0-.283.096-.52.287-.713A.968.968 0 0 1 12 5h8a.97.97 0 0 1 .712.287c.192.192.288.43.288.713s-.096.52-.288.713A.968.968 0 0 1 20 7h-8Zm-8.15 6.15c-.167.167-.35.208-.55.125-.2-.083-.3-.242-.3-.475V7.2c0-.233.1-.392.3-.475.2-.083.383-.042.55.125l2.8 2.8a.48.48 0 0 1 0 .7l-2.8 2.8Z"/>
</svg>
