<svg xmlns="http://www.w3.org/2000/svg" width="24" height="24" fill="currentColor" viewBox="0 0 24 24"><path d="M12 18.156q.478 0 .802-.323.323-.324.323-.802h-2.25q0 .478.323.802.324.323.802.323M8.063 16.47h7.874a.54.54 0 0 0 .394-.169.54.54 0 0 0 0-.788.54.54 0 0 0-.393-.168h-.563V12.7q0-1.237-.675-2.25a3 3 0 0 0-1.856-1.294v-.281a.82.82 0 0 0-.24-.605.82.82 0 0 0-.604-.239.82.82 0 0 0-.844.844v.281A3 3 0 0 0 9.3 10.45a3.97 3.97 0 0 0-.675 2.25v2.644h-.562a.54.54 0 0 0-.394.168.54.54 0 0 0 0 .788.54.54 0 0 0 .394.169M3 19.844V9.719q0-.534.24-1.013.238-.478.66-.787l6.75-5.063q.31-.225.647-.337.338-.113.703-.113.366 0 .703.113.337.112.647.337L20.1 7.92q.422.309.66.787.24.479.24 1.013v10.125q0 .927-.66 1.589-.662.66-1.59.66H5.25q-.928 0-1.59-.66-.66-.66-.66-1.59m2.25 0h13.5V9.719L12 4.656 5.25 9.72z"/></svg>