<svg xmlns="http://www.w3.org/2000/svg" width="24" height="24" fill="currentColor" viewBox="0 0 24 24"><path d="M11.5 22q-2.3 0-3.9-1.6T6 16.5V6q0-1.65 1.175-2.825T10 2t2.825 1.175T14 6v9.5q0 1.05-.725 1.775T11.5 18t-1.775-.725T9 15.5V6.75A.73.73 0 0 1 9.75 6a.73.73 0 0 1 .75.75v8.75q0 .424.287.712.288.288.713.288.424 0 .713-.288a.97.97 0 0 0 .287-.712V6q0-1.05-.725-1.775T10 3.5t-1.775.725T7.5 6v10.5q0 1.65 1.175 2.825T11.5 20.5t2.825-1.175T15.5 16.5V6.75a.73.73 0 0 1 .75-.75.73.73 0 0 1 .75.75v9.75q0 2.3-1.6 3.9T11.5 22"/></svg>