<svg xmlns="http://www.w3.org/2000/svg" width="24" height="24" fill="currentColor" viewBox="0 0 24 24">
  <path d="M8.8 19c-.55 0-1.02-.196-1.413-.587A1.926 1.926 0 0 1 6.8 17V7c0-.55.196-1.02.588-1.412A1.926 1.926 0 0 1 8.8 5h3.525c1.083 0 2.083.333 3 1 .917.667 1.375 1.592 1.375 2.775 0 .85-.192 1.504-.575 1.963-.383.458-.742.787-1.075.987.417.183.88.525 1.387 1.025.509.5.763 1.25.763 2.25 0 1.483-.542 2.52-1.625 3.113-1.083.591-2.1.887-3.05.887H8.8Zm1.025-2.8h2.6c.8 0 1.287-.204 1.462-.612.175-.409.263-.705.263-.888 0-.183-.088-.48-.263-.887-.175-.409-.687-.613-1.537-.613H9.825v3Zm0-5.7h2.325c.55 0 .95-.142 1.2-.425a1.4 1.4 0 0 0 .375-.95c0-.4-.142-.725-.425-.975-.283-.25-.65-.375-1.1-.375H9.825V10.5Z"/>
</svg>
