<svg xmlns="http://www.w3.org/2000/svg" width="24" height="24" fill="currentColor" viewBox="0 0 24 24">
  <path d="M5 22c-.55 0-1.02-.196-1.413-.587A1.926 1.926 0 0 1 3 20V6c0-.55.196-1.02.587-1.412A1.926 1.926 0 0 1 5 4h1V2h2v2h8V2h2v2h1c.55 0 1.02.196 1.413.588.391.391.587.862.587 1.412v14c0 .55-.196 1.02-.587 1.413A1.926 1.926 0 0 1 19 22H5Zm0-2h14V10H5v10ZM5 8h14V6H5v2Zm7 6a.968.968 0 0 1-.713-.287A.968.968 0 0 1 11 13c0-.283.096-.52.287-.713A.968.968 0 0 1 12 12c.283 0 .52.096.713.287.191.192.287.43.287.713s-.096.52-.287.713A.968.968 0 0 1 12 14Zm-4 0a.967.967 0 0 1-.713-.287A.968.968 0 0 1 7 13c0-.283.096-.52.287-.713A.967.967 0 0 1 8 12c.283 0 .52.096.713.287.191.192.287.43.287.713s-.096.52-.287.713A.967.967 0 0 1 8 14Zm8 0a.968.968 0 0 1-.713-.287A.968.968 0 0 1 15 13c0-.283.096-.52.287-.713A.968.968 0 0 1 16 12a.97.97 0 0 1 .712.287c.192.192.288.43.288.713s-.096.52-.288.713A.968.968 0 0 1 16 14Zm-4 4a.968.968 0 0 1-.713-.288A.968.968 0 0 1 11 17a.97.97 0 0 1 .287-.712A.968.968 0 0 1 12 16a.97.97 0 0 1 .713.288c.191.191.287.429.287.712s-.096.52-.287.712A.968.968 0 0 1 12 18Zm-4 0a.967.967 0 0 1-.713-.288A.968.968 0 0 1 7 17a.97.97 0 0 1 .287-.712A.967.967 0 0 1 8 16a.97.97 0 0 1 .713.288c.191.191.287.429.287.712s-.096.52-.287.712A.967.967 0 0 1 8 18Zm8 0a.968.968 0 0 1-.713-.288A.968.968 0 0 1 15 17a.97.97 0 0 1 .287-.712A.968.968 0 0 1 16 16c.283 0 .52.096.712.288.192.191.288.429.288.712s-.096.52-.288.712A.968.968 0 0 1 16 18Z"/>
</svg>
