<svg xmlns="http://www.w3.org/2000/svg" width="24" height="24" fill="currentColor" viewBox="0 0 24 24"><path d="M8 17q.424 0 .713-.288A.97.97 0 0 0 9 16v-5a.97.97 0 0 0-.287-.713A.97.97 0 0 0 8 10a.97.97 0 0 0-.713.287A.97.97 0 0 0 7 11v5q0 .424.287.712Q7.576 17 8 17m4 0q.424 0 .713-.288A.97.97 0 0 0 13 16V8a.97.97 0 0 0-.287-.713A.97.97 0 0 0 12 7a.97.97 0 0 0-.713.287A.97.97 0 0 0 11 8v8q0 .424.287.712.288.288.713.288m4 0q.424 0 .712-.288A.97.97 0 0 0 17 16v-2a.97.97 0 0 0-.288-.713A.97.97 0 0 0 16 13a.97.97 0 0 0-.713.287A.97.97 0 0 0 15 14v2q0 .424.287.712.288.288.713.288M5 21q-.824 0-1.412-.587A1.93 1.93 0 0 1 3 19V5q0-.824.587-1.412A1.93 1.93 0 0 1 5 3h14q.824 0 1.413.587Q21 4.176 21 5v14q0 .824-.587 1.413A1.93 1.93 0 0 1 19 21zm0-2h14V5H5z"/></svg>