<svg xmlns="http://www.w3.org/2000/svg" width="24" height="24" fill="currentColor" viewBox="0 0 24 24"><path d="M19 6h-2a.97.97 0 0 1-.712-.287A.97.97 0 0 1 16 5q0-.424.288-.713A.97.97 0 0 1 17 4h2V2q0-.424.288-.712A.97.97 0 0 1 20 1q.424 0 .712.288Q21 1.575 21 2v2h2q.424 0 .712.287Q24 4.576 24 5t-.288.713A.97.97 0 0 1 23 6h-2v2q0 .424-.288.713A.97.97 0 0 1 20 9a.97.97 0 0 1-.712-.287A.97.97 0 0 1 19 8z"/><path d="M22 17v-6.341A6 6 0 0 1 20 11v6H6a2 2 0 0 0-1.414.586L4 18.172V5h10c0-.701.12-1.374.341-2H4a2 2 0 0 0-2 2v15.586c0 .89 1.077 1.337 1.707.707L6 19h14a2 2 0 0 0 2-2"/></svg>