<svg width="24" height="24" viewBox="0 0 24 24" fill="none" xmlns="http://www.w3.org/2000/svg">
<path d="M19 6H17C16.7167 6 16.4792 5.90417 16.2875 5.7125C16.0958 5.52083 16 5.28333 16 5C16 4.71667 16.0958 4.47917 16.2875 4.2875C16.4792 4.09583 16.7167 4 17 4H19V2C19 1.71667 19.0958 1.47917 19.2875 1.2875C19.4792 1.09583 19.7167 1 20 1C20.2833 1 20.5208 1.09583 20.7125 1.2875C20.9042 1.47917 21 1.71667 21 2V4H23C23.2833 4 23.5208 4.09583 23.7125 4.2875C23.9042 4.47917 24 4.71667 24 5C24 5.28333 23.9042 5.52083 23.7125 5.7125C23.5208 5.90417 23.2833 6 23 6H21V8C21 8.28333 20.9042 8.52083 20.7125 8.7125C20.5208 8.90417 20.2833 9 20 9C19.7167 9 19.4792 8.90417 19.2875 8.7125C19.0958 8.52083 19 8.28333 19 8V6Z" fill="currentColor"/>
<path d="M22 17V10.6586C21.3744 10.8797 20.7013 11 20 11V17H6C5.46957 17 4.96086 17.2107 4.58579 17.5858L4 18.1716V5H14C14 4.29873 14.1203 3.62556 14.3414 3H4C2.89543 3 2 3.89543 2 5V20.5858C2 21.4767 3.07714 21.9229 3.70711 21.2929L6 19H20C21.1046 19 22 18.1046 22 17Z" fill="currentColor"/>
</svg>
