<svg xmlns="http://www.w3.org/2000/svg" width="24" height="24" fill="currentColor" viewBox="0 0 24 24"><path d="M2.95 16.3 1.5 21.25a.94.94 0 0 0 .25 1 .94.94 0 0 0 1 .25l4.95-1.45a10.2 10.2 0 0 0 2.1.712Q10.875 22 12 22a9.7 9.7 0 0 0 3.9-.788 10.1 10.1 0 0 0 3.175-2.137q1.35-1.35 2.137-3.175A9.7 9.7 0 0 0 22 12a9.7 9.7 0 0 0-.788-3.9 10.1 10.1 0 0 0-2.137-3.175q-1.35-1.35-3.175-2.137A9.7 9.7 0 0 0 12 2a9.7 9.7 0 0 0-3.9.788 10.1 10.1 0 0 0-3.175 2.137Q3.575 6.275 2.788 8.1A9.7 9.7 0 0 0 2 12q0 1.125.238 2.2.237 1.076.712 2.1"/></svg>