<svg width="24" height="24" viewBox="0 0 24 24" fill="none" xmlns="http://www.w3.org/2000/svg">
<path d="M8.22495 8.32502C8.04162 8.14169 7.94995 7.90002 7.94995 7.60002C7.94995 7.30002 8.04162 7.05836 8.22495 6.87502L11.3 3.80002C11.4 3.70002 11.5083 3.62919 11.625 3.58752C11.7416 3.54586 11.8666 3.52502 12 3.52502C12.1333 3.52502 12.2625 3.54586 12.3875 3.58752C12.5125 3.62919 12.6166 3.70002 12.7 3.80002L15.8 6.90002C15.9833 7.08336 16.0708 7.32086 16.0625 7.61252C16.0541 7.90419 15.9583 8.14169 15.775 8.32502C15.5916 8.50836 15.35 8.60002 15.05 8.60002C14.75 8.60002 14.5083 8.50836 14.325 8.32502L12 6.00002L9.64995 8.35002C9.46662 8.53336 9.22912 8.62086 8.93745 8.61252C8.64578 8.60419 8.40828 8.50836 8.22495 8.32502ZM12 20.575C11.8666 20.575 11.7416 20.55 11.625 20.5C11.5083 20.45 11.4 20.3834 11.3 20.3L8.22495 17.225C8.04162 17.0417 7.94995 16.8 7.94995 16.5C7.94995 16.2 8.04162 15.9584 8.22495 15.775C8.40828 15.5917 8.64995 15.5 8.94995 15.5C9.24995 15.5 9.49162 15.5917 9.67495 15.775L12 18.1L14.35 15.75C14.5333 15.5667 14.7708 15.4792 15.0625 15.4875C15.3541 15.4959 15.5916 15.5917 15.775 15.775C15.9583 15.9584 16.05 16.2 16.05 16.5C16.05 16.8 15.9583 17.0417 15.775 17.225L12.7 20.3C12.6166 20.3834 12.5125 20.45 12.3875 20.5C12.2625 20.55 12.1333 20.575 12 20.575Z" fill="currentColor"/>
</svg>
