<svg xmlns="http://www.w3.org/2000/svg" width="24" height="24" fill="currentColor" viewBox="0 0 24 24"><path d="m8.825 12 1.475-1.475q.3-.3.3-.7t-.3-.7-.713-.3-.712.3L6.7 11.3q-.15.15-.213.325a1.1 1.1 0 0 0-.062.375q0 .2.063.375a.9.9 0 0 0 .212.325l2.175 2.175q.3.3.713.3.412 0 .712-.3t.3-.7-.3-.7zm6.35 0L13.7 13.475q-.3.3-.3.7t.3.7.713.3.712-.3L17.3 12.7q.15-.15.212-.325.063-.175.063-.375t-.062-.375a.9.9 0 0 0-.213-.325l-2.175-2.175a1 1 0 0 0-1.425 0q-.3.3-.3.7t.3.7zM5 21q-.824 0-1.412-.587A1.93 1.93 0 0 1 3 19V5q0-.824.587-1.412A1.93 1.93 0 0 1 5 3h14q.824 0 1.413.587Q21 4.176 21 5v14q0 .824-.587 1.413A1.93 1.93 0 0 1 19 21zm0-2h14V5H5z"/></svg>