<svg xmlns="http://www.w3.org/2000/svg" width="24" height="24" fill="currentColor" viewBox="0 0 24 24"><path d="M3.5 20q-.625 0-1.062-.437A1.45 1.45 0 0 1 2 18.5q0-.625.438-1.062A1.45 1.45 0 0 1 3.5 17H4V6q0-.824.588-1.412A1.93 1.93 0 0 1 6 4h14q.424 0 .712.287Q21 4.576 21 5t-.288.713A.97.97 0 0 1 20 6H6v11h4.5q.624 0 1.063.438.437.437.437 1.062t-.437 1.063A1.45 1.45 0 0 1 10.5 20zM15 20a.97.97 0 0 1-.713-.288A.97.97 0 0 1 14 19V9q0-.424.287-.713A.97.97 0 0 1 15 8h6q.424 0 .712.287Q22 8.576 22 9v10q0 .424-.288.712A.97.97 0 0 1 21 20zm1-3h4v-7h-4z"/></svg>