<svg xmlns="http://www.w3.org/2000/svg" width="24" height="24" fill="currentColor" viewBox="0 0 24 24"><path d="M12 18.6c-.99 0-1.8.81-1.8 1.8s.81 1.8 1.8 1.8 1.8-.81 1.8-1.8-.81-1.8-1.8-1.8M6.6 2.4c-.99 0-1.8.81-1.8 1.8S5.61 6 6.6 6s1.8-.81 1.8-1.8-.81-1.8-1.8-1.8m0 5.4c-.99 0-1.8.81-1.8 1.8s.81 1.8 1.8 1.8 1.8-.81 1.8-1.8-.81-1.8-1.8-1.8m0 5.4c-.99 0-1.8.81-1.8 1.8s.81 1.8 1.8 1.8 1.8-.81 1.8-1.8-.81-1.8-1.8-1.8M17.4 6c.99 0 1.8-.81 1.8-1.8s-.81-1.8-1.8-1.8-1.8.81-1.8 1.8.81 1.8 1.8 1.8M12 13.2c-.99 0-1.8.81-1.8 1.8s.81 1.8 1.8 1.8 1.8-.81 1.8-1.8-.81-1.8-1.8-1.8m5.4 0c-.99 0-1.8.81-1.8 1.8s.81 1.8 1.8 1.8 1.8-.81 1.8-1.8-.81-1.8-1.8-1.8m0-5.4c-.99 0-1.8.81-1.8 1.8s.81 1.8 1.8 1.8 1.8-.81 1.8-1.8-.81-1.8-1.8-1.8m-5.4 0c-.99 0-1.8.81-1.8 1.8s.81 1.8 1.8 1.8 1.8-.81 1.8-1.8-.81-1.8-1.8-1.8m0-5.4c-.99 0-1.8.81-1.8 1.8S11.01 6 12 6s1.8-.81 1.8-1.8-.81-1.8-1.8-1.8"/></svg>