<svg width="24" height="24" viewBox="0 0 24 24" fill="none" xmlns="http://www.w3.org/2000/svg">
<path d="M21 3.997C20.9996 3.8625 20.9727 3.73425 20.9241 3.61722C20.8757 3.50014 20.8041 3.3904 20.7092 3.29502L20.705 3.29078C20.5242 3.11106 20.2751 3 20 3H12C11.4477 3 11 3.44772 11 4C11 4.55228 11.4477 5 12 5H17.5858L5 17.5858V12C5 11.4477 4.55229 11 4 11C3.44771 11 3 11.4477 3 12V19.9993L3 20.003C3.0004 20.1375 3.02735 20.2657 3.07588 20.3828C3.12432 20.4999 3.19595 20.6096 3.29078 20.705L3.29502 20.7092C3.47581 20.8889 3.72494 21 4 21H12C12.5523 21 13 20.5523 13 20C13 19.4477 12.5523 19 12 19H6.41421L19 6.41421V12C19 12.5523 19.4477 13 20 13C20.5523 13 21 12.5523 21 12V4.00069L21 3.997Z" fill="currentColor"/>
</svg>
