<svg xmlns="http://www.w3.org/2000/svg" width="24" height="24" fill="currentColor" viewBox="0 0 24 24"><path d="m12 19.2 3.9-3.9a.95.95 0 0 1 .7-.275q.425 0 .7.275a.95.95 0 0 1 .275.7.95.95 0 0 1-.275.7l-3.875 3.875q-.575.575-1.425.575t-1.425-.575L6.7 16.7a.95.95 0 0 1-.275-.7q0-.425.275-.7a.95.95 0 0 1 .7-.275q.425 0 .7.275zm0-14.25-3.9 3.9a.95.95 0 0 1-.7.275.95.95 0 0 1-.7-.275.95.95 0 0 1-.275-.7q0-.425.275-.7l3.875-3.875Q11.15 3 12 3t1.425.575L17.3 7.45a.95.95 0 0 1 .275.7.95.95 0 0 1-.275.7.95.95 0 0 1-.7.275.95.95 0 0 1-.7-.275z"/></svg>