<svg xmlns="http://www.w3.org/2000/svg" width="24" height="24" fill="currentColor" viewBox="0 0 24 24"><path d="M12 13a.97.97 0 0 1-.713-.287A.97.97 0 0 1 11 12q0-.424.287-.713A.97.97 0 0 1 12 11q.424 0 .713.287.287.288.287.713 0 .424-.287.713A.97.97 0 0 1 12 13m0 9a9.7 9.7 0 0 1-3.9-.788 10.1 10.1 0 0 1-3.175-2.137q-1.35-1.35-2.137-3.175A9.7 9.7 0 0 1 2 12q0-2.075.788-3.9a10.1 10.1 0 0 1 2.137-3.175q1.35-1.35 3.175-2.137A9.7 9.7 0 0 1 12 2q2.075 0 3.9.788a10.1 10.1 0 0 1 3.175 2.137q1.35 1.35 2.137 3.175A9.7 9.7 0 0 1 22 12a9.7 9.7 0 0 1-.788 3.9 10.1 10.1 0 0 1-2.137 3.175q-1.35 1.35-3.175 2.137A9.7 9.7 0 0 1 12 22m0-2q3.35 0 5.675-2.325T20 12t-2.325-5.675T12 4 6.325 6.325 4 12t2.325 5.675T12 20m0 0q-3.35 0-5.675-2.325T4 12t2.325-5.675T12 4t5.675 2.325T20 12t-2.325 5.675T12 20m1.675-5.85q.15-.075.275-.2t.2-.275l2.925-6.25q.125-.25-.062-.437-.188-.188-.438-.063l-6.25 2.925q-.15.075-.275.2t-.2.275l-2.925 6.25q-.125.25.063.438.186.186.437.062z"/></svg>