<svg xmlns="http://www.w3.org/2000/svg" width="24" height="24" fill="currentColor" viewBox="0 0 24 24">
  <path d="M5 21c-.55 0-1.02-.196-1.413-.587A1.926 1.926 0 0 1 3 19V6.5c0-.25.042-.475.125-.675.083-.2.192-.392.325-.575l1.4-1.7c.133-.183.3-.32.5-.412C5.55 3.046 5.767 3 6 3h12c.233 0 .45.046.65.138.2.091.367.229.5.412l1.4 1.7c.133.183.242.375.325.575.083.2.125.425.125.675V19c0 .55-.196 1.02-.587 1.413A1.926 1.926 0 0 1 19 21H5Zm.4-15h13.2l-.85-1H6.25L5.4 6ZM5 19h14V8H5v11Zm7-1.425c.133 0 .258-.02.375-.063a.877.877 0 0 0 .325-.212l2.6-2.6a.948.948 0 0 0 .275-.7.948.948 0 0 0-.275-.7.948.948 0 0 0-.7-.275.948.948 0 0 0-.7.275l-.9.9V11a.968.968 0 0 0-.287-.713A.968.968 0 0 0 12 10a.968.968 0 0 0-.713.287A.968.968 0 0 0 11 11v3.2l-.9-.9a.948.948 0 0 0-.7-.275.948.948 0 0 0-.7.275.948.948 0 0 0-.275.7.95.95 0 0 0 .275.7l2.6 2.6c.1.1.208.17.325.212.117.042.242.063.375.063Z"/>
</svg>
