<svg xmlns="http://www.w3.org/2000/svg" width="24" height="24" fill="currentColor" viewBox="0 0 24 24"><path d="M17.913 11.39a.9.9 0 0 1-.663.282.9.9 0 0 1-.663-.282L12.61 7.413a.9.9 0 0 1-.282-.663q0-.381.282-.663l3.977-3.977a.9.9 0 0 1 .663-.282q.381 0 .663.282l3.977 3.977a.9.9 0 0 1 .282.663.9.9 0 0 1-.282.663zm-14.625-.677Q3.575 11 4 11h6q.424 0 .713-.287A.97.97 0 0 0 11 10V4a.97.97 0 0 0-.287-.712A.97.97 0 0 0 10 3H4a.97.97 0 0 0-.712.288A.97.97 0 0 0 3 4v6q0 .424.288.713m10 10Q13.575 21 14 21h6q.424 0 .712-.288A.97.97 0 0 0 21 20v-6a.97.97 0 0 0-.288-.713A.97.97 0 0 0 20 13h-6a.97.97 0 0 0-.713.287A.97.97 0 0 0 13 14v6q0 .424.287.712m-9.999.001Q3.575 21 4 21h6q.424 0 .713-.288A.97.97 0 0 0 11 20v-6a.97.97 0 0 0-.287-.713A.97.97 0 0 0 10 13H4a.97.97 0 0 0-.712.287A.97.97 0 0 0 3 14v6q0 .424.288.712"/></svg>