<svg xmlns="http://www.w3.org/2000/svg" width="24" height="24" fill="currentColor" viewBox="0 0 24 24">
  <path d="M17.913 11.39a.907.907 0 0 1-.663.282.907.907 0 0 1-.663-.282L12.61 7.413a.907.907 0 0 1-.282-.663c0-.254.094-.475.282-.663l3.977-3.977a.907.907 0 0 1 .663-.282c.254 0 .475.094.663.282l3.977 3.977a.907.907 0 0 1 .282.663.907.907 0 0 1-.282.663l-3.977 3.977Zm-14.625-.677A.968.968 0 0 0 4 11h6c.283 0 .52-.096.713-.287A.968.968 0 0 0 11 10V4a.967.967 0 0 0-.287-.712A.968.968 0 0 0 10 3H4a.968.968 0 0 0-.712.288A.968.968 0 0 0 3 4v6c0 .283.096.52.288.713Zm9.999 9.999c.192.192.43.288.713.288h6c.283 0 .52-.096.712-.288A.968.968 0 0 0 21 20v-6a.968.968 0 0 0-.288-.713A.968.968 0 0 0 20 13h-6a.968.968 0 0 0-.713.287A.968.968 0 0 0 13 14v6c0 .283.096.52.287.712Zm-9.999 0A.965.965 0 0 0 4 21h6a.97.97 0 0 0 .713-.288A.968.968 0 0 0 11 20v-6a.968.968 0 0 0-.287-.713A.968.968 0 0 0 10 13H4a.967.967 0 0 0-.712.287A.968.968 0 0 0 3 14v6c0 .283.096.52.288.712Z"/>
</svg>
