<svg xmlns="http://www.w3.org/2000/svg" width="24" height="24" fill="currentColor" viewBox="0 0 24 24">
  <path d="M12 22a9.738 9.738 0 0 0 3.9-.788 10.098 10.098 0 0 0 3.175-2.137c.9-.9 1.613-1.958 2.137-3.175A9.738 9.738 0 0 0 22 12a9.738 9.738 0 0 0-.788-3.9 10.099 10.099 0 0 0-2.137-3.175c-.9-.9-1.958-1.612-3.175-2.137A9.738 9.738 0 0 0 12 2a9.738 9.738 0 0 0-3.9.788 10.099 10.099 0 0 0-3.175 2.137c-.9.9-1.612 1.958-2.137 3.175A9.738 9.738 0 0 0 2 12a9.74 9.74 0 0 0 .788 3.9 10.098 10.098 0 0 0 2.137 3.175c.9.9 1.958 1.613 3.175 2.137A9.738 9.738 0 0 0 12 22Zm0-14a1.5 1.5 0 0 0-1.5 1.5 1 1 0 1 1-2 0 3.5 3.5 0 1 1 6.01 2.439c-.122.126-.24.243-.352.355-.287.288-.54.54-.76.824-.293.375-.398.651-.398.882a1 1 0 1 1-2 0c0-.874.407-1.58.819-2.11.305-.392.688-.775 1-1.085l.257-.26A1.5 1.5 0 0 0 12 8Zm1 9a1 1 0 1 1-2 0 1 1 0 0 1 2 0Z"/>
</svg>
