<svg xmlns="http://www.w3.org/2000/svg" width="24" height="24" fill="currentColor" viewBox="0 0 24 24"><path d="M12 5a1 1 0 0 1-1-1V3a1 1 0 1 1 2 0v1a1 1 0 0 1-1 1m-7.071-.071a1 1 0 0 1 1.414 0l.707.707A1 1 0 0 1 5.636 7.05l-.707-.707a1 1 0 0 1 0-1.414"/><path fill-rule="evenodd" d="M15.734 15.325C15.316 15.795 15 16.371 15 17v2a2 2 0 0 1-2 2h-2a2 2 0 0 1-2-2v-2c0-.63-.316-1.205-.734-1.675a5 5 0 1 1 7.468 0m-1.493-1.33a3 3 0 1 0-4.482 0c.433.486.894 1.166 1.112 2.005h2.258c.218-.84.679-1.52 1.112-2.005M13 18h-2v1h2z" clip-rule="evenodd"/><path d="M2 12a1 1 0 0 1 1-1h1a1 1 0 1 1 0 2H3a1 1 0 0 1-1-1m18-1a1 1 0 1 0 0 2h1a1 1 0 1 0 0-2zm-3.05-5.364a1 1 0 0 0 1.414 1.414l.707-.707a1 1 0 0 0-1.414-1.414z"/></svg>