<svg xmlns="http://www.w3.org/2000/svg" width="24" height="24" fill="currentColor" viewBox="0 0 24 24"><path d="M4.5 7.5q-.618 0-1.06-.44A1.44 1.44 0 0 1 3 6q0-.618.44-1.06.442-.44 1.06-.44t1.06.44Q6 5.383 6 6t-.44 1.06q-.44.44-1.06.44m4.788 11.213Q9.575 19 10 19h10q.424 0 .712-.288A.97.97 0 0 0 21 18a.97.97 0 0 0-.288-.712A.97.97 0 0 0 20 17H10a.97.97 0 0 0-.713.288A.97.97 0 0 0 9 18q0 .424.287.712m.001-5.999Q9.575 13 10 13h10q.424 0 .712-.287A.97.97 0 0 0 21 12a.97.97 0 0 0-.288-.713A.97.97 0 0 0 20 11H10a.97.97 0 0 0-.713.287A.97.97 0 0 0 9 12q0 .424.287.713m.001-6Q9.575 7 10 7h10q.424 0 .712-.287A.97.97 0 0 0 21 6a.97.97 0 0 0-.288-.713A.97.97 0 0 0 20 5H10a.97.97 0 0 0-.713.287A.97.97 0 0 0 9 6q0 .424.287.713M3.44 19.06q.442.44 1.06.44t1.06-.44Q6 18.62 6 18t-.44-1.06a1.45 1.45 0 0 0-1.06-.44q-.618 0-1.06.44Q3 17.38 3 18t.44 1.06M4.5 13.5q-.618 0-1.06-.44A1.45 1.45 0 0 1 3 12q0-.619.44-1.06.442-.44 1.06-.44t1.06.44Q6 11.383 6 12t-.44 1.06q-.44.44-1.06.44"/></svg>