<svg xmlns="http://www.w3.org/2000/svg" width="24" height="24" fill="currentColor" viewBox="0 0 24 24"><path d="M6 22q-.825 0-1.412-.587A1.93 1.93 0 0 1 4 20V10q0-.825.588-1.412a2 2 0 0 1 .702-.463L1.333 4.167a1 1 0 0 1 1.414-1.414L7 7.006v-.012l13 13v.012l1.247 1.247a1 1 0 1 1-1.414 1.414l-.896-.896A1.94 1.94 0 0 1 18 22zm14-4.834V10q0-.825-.587-1.412A1.93 1.93 0 0 0 18 8h-1V6q0-2.075-1.463-3.537Q14.075 1 12 1T8.463 2.463a4.9 4.9 0 0 0-1.22 1.946L9 6.166V6q0-1.25.875-2.125A2.9 2.9 0 0 1 12 3q1.25 0 2.125.875T15 6v2h-4.166z"/></svg>