<svg xmlns="http://www.w3.org/2000/svg" width="24" height="24" fill="currentColor" viewBox="0 0 24 24">
  <path d="M6 22c-.55 0-1.02-.196-1.412-.587A1.926 1.926 0 0 1 4 20V10c0-.55.196-1.02.588-1.412a1.98 1.98 0 0 1 .702-.463L1.333 4.167a1 1 0 0 1 1.414-1.414L7 7.006v-.012l13 13v.012l1.247 1.247a1 1 0 1 1-1.414 1.414l-.896-.896A1.935 1.935 0 0 1 18 22H6Zm14-4.834V10c0-.55-.196-1.02-.587-1.412A1.926 1.926 0 0 0 18 8h-1V6c0-1.383-.488-2.563-1.463-3.538C14.563 1.487 13.383 1 12 1s-2.562.488-3.537 1.462a4.876 4.876 0 0 0-1.22 1.947L9 6.166V6c0-.833.292-1.542.875-2.125A2.893 2.893 0 0 1 12 3c.833 0 1.542.292 2.125.875S15 5.167 15 6v2h-4.166L20 17.166Z"/>
</svg>
