<svg xmlns="http://www.w3.org/2000/svg" width="24" height="24" fill="currentColor" viewBox="0 0 24 24">
  <path fill-rule="evenodd" d="M16.099 2.4a4.09 4.09 0 0 1-1.057 3.073c-.746.863-1.878 1.36-3.07 1.348-.075-1.081.315-2.146 1.085-2.96.78-.825 1.866-1.346 3.042-1.461Zm3.767 6.54c-1.37.783-2.213 2.163-2.234 3.657.002 1.69 1.092 3.215 2.768 3.873a9.386 9.386 0 0 1-1.44 2.723c-.848 1.178-1.737 2.329-3.149 2.35-.67.015-1.124-.165-1.596-.351-.492-.195-1.006-.398-1.809-.398-.851 0-1.388.21-1.905.411-.447.175-.88.344-1.489.368-1.344.046-2.371-1.258-3.25-2.425-1.757-2.383-3.125-6.716-1.291-9.664.861-1.437 2.471-2.349 4.241-2.402.763-.015 1.494.258 2.136.497.49.183.928.347 1.286.347.315 0 .74-.157 1.237-.34.781-.288 1.737-.64 2.71-.545 1.514.044 2.917.748 3.785 1.9Z" clip-rule="evenodd"/>
</svg>
