<svg width="24" height="24" viewBox="0 0 24 24" fill="none" xmlns="http://www.w3.org/2000/svg">
<path d="M19.1 21.9001L17.15 20.0001H6.5C4.96667 20.0001 3.66667 19.4668 2.6 18.4001C1.53333 17.3334 1 16.0334 1 14.5001C1 13.2168 1.39583 12.0751 2.1875 11.0751C2.97917 10.0751 4 9.43343 5.25 9.1501C5.3 9.01676 5.35 8.8876 5.4 8.7626C5.45 8.6376 5.5 8.5001 5.55 8.3501L2.1 4.9001C1.91667 4.71676 1.825 4.48343 1.825 4.2001C1.825 3.91676 1.91667 3.68343 2.1 3.5001C2.28333 3.31676 2.51667 3.2251 2.8 3.2251C3.08333 3.2251 3.31667 3.31676 3.5 3.5001L20.5 20.5001C20.6833 20.6834 20.775 20.9168 20.775 21.2001C20.775 21.4834 20.6833 21.7168 20.5 21.9001C20.3167 22.0834 20.0833 22.1793 19.8 22.1876C19.5167 22.1959 19.2833 22.1001 19.1 21.9001ZM21.6 18.7501L8.05 5.2251C8.63333 4.8251 9.25417 4.52093 9.9125 4.3126C10.5708 4.10426 11.2667 4.0001 12 4.0001C13.95 4.0001 15.6042 4.67926 16.9625 6.0376C18.3208 7.39593 19 9.0501 19 11.0001C20.15 11.1334 21.1042 11.6293 21.8625 12.4876C22.6208 13.3459 23 14.3501 23 15.5001C23 16.1501 22.875 16.7543 22.625 17.3126C22.375 17.8709 22.0333 18.3501 21.6 18.7501Z" fill="currentColor"/>
</svg>
