<svg width="24" height="24" viewBox="0 0 24 24" fill="none" xmlns="http://www.w3.org/2000/svg">
<path fill-rule="evenodd" clip-rule="evenodd" d="M6.11905 2C5.67135 2 5.4493 2.54322 5.7688 2.85683L7.85025 4.89988C7.94604 4.99391 8 5.12249 8 5.25671V9.74371C8 9.87768 7.94623 10.0061 7.85076 10.1L4.14924 13.7437C4.05377 13.8377 4 13.9661 4 14.1V15.5C4 15.7761 4.22386 16 4.5 16H11L11 22C11 22.5523 11.4477 23 12 23C12.5523 23 13 22.5523 13 22V16H19.5C19.7761 16 20 15.7761 20 15.5V14.1C20 13.9661 19.9462 13.8377 19.8508 13.7437L16.1492 10.1C16.0538 10.0061 16 9.87768 16 9.74371V5.25671C16 5.12249 16.054 4.99391 16.1498 4.89988L18.2312 2.85683C18.5507 2.54322 18.3286 2 17.8809 2H6.11905ZM10 4H14V9.74371C14 10.4136 14.2688 11.0554 14.7462 11.5253L17.2601 14H6.73985L9.25379 11.5253C9.73117 11.0554 10 10.4136 10 9.74371L10 4Z" fill="currentColor"/>
</svg>
