<svg xmlns="http://www.w3.org/2000/svg" width="24" height="24" fill="currentColor" viewBox="0 0 24 24">
  <path d="M16 10a.97.97 0 0 0 .712-.287A.967.967 0 0 0 17 9a.967.967 0 0 0-.288-.713A.968.968 0 0 0 16 8h-3a.968.968 0 0 0-.713.287A.967.967 0 0 0 12 9c0 .283.096.52.287.713.192.191.43.287.713.287h3Zm0 6a.97.97 0 0 0 .712-.287A.968.968 0 0 0 17 15a.968.968 0 0 0-.288-.713A.968.968 0 0 0 16 14h-3a.968.968 0 0 0-.713.287A.968.968 0 0 0 12 15c0 .283.096.52.287.713.192.191.43.287.713.287h3Zm-7-5c.55 0 1.02-.196 1.412-.588C10.804 10.021 11 9.55 11 9c0-.55-.196-1.02-.588-1.412A1.926 1.926 0 0 0 9 7c-.55 0-1.02.196-1.412.588A1.926 1.926 0 0 0 7 9c0 .55.196 1.02.588 1.412.391.392.862.588 1.412.588Zm0 6c.55 0 1.02-.196 1.412-.587.392-.392.588-.863.588-1.413s-.196-1.02-.588-1.412A1.926 1.926 0 0 0 9 13c-.55 0-1.02.196-1.412.588A1.926 1.926 0 0 0 7 15c0 .55.196 1.02.588 1.413.391.391.862.587 1.412.587Zm-4 4c-.55 0-1.02-.196-1.413-.587A1.926 1.926 0 0 1 3 19V5c0-.55.196-1.02.587-1.413A1.926 1.926 0 0 1 5 3h14c.55 0 1.02.196 1.413.587.39.393.587.863.587 1.413v14c0 .55-.196 1.02-.587 1.413A1.926 1.926 0 0 1 19 21H5Zm0-2h14V5H5v14Z"/>
</svg>
