<svg xmlns="http://www.w3.org/2000/svg" width="24" height="24" fill="currentColor" viewBox="0 0 24 24"><path fill-rule="evenodd" d="M6.5 2h11a4.5 4.5 0 1 1 0 9h-11a4.5 4.5 0 0 1 0-9m0 2h7.258A4.5 4.5 0 0 0 13 6.5c0 .925.28 1.785.758 2.5H6.5a2.5 2.5 0 0 1 0-5M15 6.5a2.5 2.5 0 1 1 5 0 2.5 2.5 0 0 1-5 0m-13 11A4.5 4.5 0 0 1 6.5 13h11a4.5 4.5 0 1 1 0 9h-11q-.233 0-.46-.023A4.5 4.5 0 0 1 2 17.5m8.242-2.5H17.5a2.5 2.5 0 0 1 0 5h-7.258A4.5 4.5 0 0 0 11 17.5c0-.925-.28-1.785-.758-2.5M6.5 15a2.5 2.5 0 1 0 0 5 2.5 2.5 0 0 0 0-5" clip-rule="evenodd"/></svg>