<svg xmlns="http://www.w3.org/2000/svg" width="24" height="24" fill="currentColor" viewBox="0 0 24 24"><path d="M4.719 4.34c.094-.642-.366-1.236-1.028-1.328-.663-.092-1.276.354-1.371.996l-.808 5.478c-.094.642.366 1.237 1.028 1.328.663.092 1.276-.354 1.371-.996zm12.115 10.174c.095-.642-.366-1.237-1.028-1.328-.662-.092-1.276.354-1.37.996l-.809 5.478c-.094.642.366 1.236 1.028 1.328.663.092 1.277-.354 1.371-.996zM9.318 3.009c.665.077 1.138.662 1.058 1.306l-.022.175a221 221 0 0 1-.266 2.006c-.161 1.171-.368 2.579-.535 3.386-.13.636-.769 1.049-1.425.921s-1.082-.745-.95-1.381c.148-.72.345-2.052.509-3.237a191 191 0 0 0 .262-1.981l.021-.17c.08-.644.684-1.103 1.348-1.025m13.17 11.505c.094-.642-.366-1.237-1.028-1.328-.663-.092-1.276.354-1.371.996l-.808 5.478c-.094.642.366 1.236 1.028 1.328.663.092 1.276-.354 1.371-.996z"/></svg>