<svg xmlns="http://www.w3.org/2000/svg" width="24" height="24" fill="currentColor" viewBox="0 0 24 24"><path d="m8.566 17-.944 4.094q-.086.406-.372.656t-.687.25q-.543 0-.887-.469a1.18 1.18 0 0 1-.2-1.031l.801-3.5H3.158q-.572 0-.916-.484a1.27 1.27 0 0 1-.2-1.078 1.12 1.12 0 0 1 1.116-.938H6.85l1.145-5h-3.12q-.57 0-.915-.484a1.27 1.27 0 0 1-.2-1.078A1.12 1.12 0 0 1 4.875 7h3.691l.945-4.094q.085-.406.372-.656.286-.25.686-.25.544 0 .887.469.345.468.2 1.031l-.8 3.5h4.578l.944-4.094q.085-.406.372-.656.286-.25.687-.25.543 0 .887.469t.2 1.031L17.723 7h3.119q.573 0 .916.484.343.485.2 1.079a1.12 1.12 0 0 1-1.116.937H17.15l-1.145 5h3.12q.57 0 .915.484.343.485.2 1.079a1.12 1.12 0 0 1-1.116.937h-3.691l-.944 4.094q-.087.406-.373.656t-.686.25q-.544 0-.887-.469a1.18 1.18 0 0 1-.2-1.031l.8-3.5zm.573-2.5h4.578l1.144-5h-4.578z"/></svg>