<svg xmlns="http://www.w3.org/2000/svg" width="24" height="24" fill="currentColor" viewBox="0 0 24 24">
  <path d="m8.566 17-.944 4.094a1.16 1.16 0 0 1-.372.656c-.19.167-.42.25-.687.25-.362 0-.658-.156-.887-.469a1.176 1.176 0 0 1-.2-1.031l.801-3.5H3.158c-.381 0-.687-.162-.916-.484a1.269 1.269 0 0 1-.2-1.078 1.12 1.12 0 0 1 1.116-.938H6.85l1.145-5h-3.12c-.38 0-.686-.161-.915-.484a1.269 1.269 0 0 1-.2-1.079A1.12 1.12 0 0 1 4.875 7h3.691l.945-4.094c.057-.27.18-.49.372-.656.19-.167.42-.25.686-.25.363 0 .658.156.887.469.23.312.296.656.2 1.031l-.8 3.5h4.578l.944-4.094c.057-.27.181-.49.372-.656.19-.167.42-.25.687-.25.362 0 .658.156.887.469.229.312.295.656.2 1.031L17.723 7h3.119c.382 0 .687.161.916.484.229.323.295.683.2 1.079a1.119 1.119 0 0 1-1.116.937H17.15l-1.145 5h3.12c.38 0 .686.162.915.484.229.323.295.683.2 1.079a1.119 1.119 0 0 1-1.116.937h-3.691l-.944 4.094c-.058.27-.182.49-.373.656-.19.167-.42.25-.686.25-.363 0-.658-.156-.887-.469a1.176 1.176 0 0 1-.2-1.031l.8-3.5H8.567Zm.573-2.5h4.578l1.144-5h-4.578l-1.144 5Z"/>
</svg>
