<svg xmlns="http://www.w3.org/2000/svg" width="24" height="24" fill="currentColor" viewBox="0 0 24 24">
  <path d="M12.731 2C13.432 2 14 2.568 14 3.269c0 .578.396 1.074.935 1.286.085.034.17.07.253.106.531.23 1.162.16 1.572-.25a1.269 1.269 0 0 1 1.794 0l1.034 1.035a1.269 1.269 0 0 1 0 1.794c-.41.41-.48 1.04-.248 1.572.036.084.07.168.105.253.212.539.708.935 1.286.935.701 0 1.269.568 1.269 1.269v1.462c0 .701-.568 1.269-1.269 1.269-.578 0-1.074.396-1.287.935-.033.085-.068.17-.104.253-.232.531-.161 1.162.248 1.572a1.269 1.269 0 0 1 0 1.794l-1.034 1.034a1.269 1.269 0 0 1-1.794 0c-.41-.41-1.04-.48-1.572-.248a7.935 7.935 0 0 1-.253.105c-.539.212-.935.708-.935 1.286 0 .701-.568 1.269-1.269 1.269H11.27c-.702 0-1.27-.568-1.27-1.269 0-.578-.396-1.074-.935-1.287a7.975 7.975 0 0 1-.253-.104c-.531-.232-1.162-.161-1.572.248a1.269 1.269 0 0 1-1.794 0l-1.034-1.034a1.269 1.269 0 0 1 0-1.794c.41-.41.48-1.04.249-1.572a7.89 7.89 0 0 1-.106-.253C4.343 14.396 3.847 14 3.27 14 2.568 14 2 13.432 2 12.731V11.27c0-.702.568-1.27 1.269-1.27.578 0 1.074-.396 1.286-.935.034-.085.07-.17.106-.253.23-.531.16-1.162-.25-1.572a1.269 1.269 0 0 1 0-1.794l1.035-1.034a1.269 1.269 0 0 1 1.794 0c.41.41 1.04.48 1.572.249a7.93 7.93 0 0 1 .253-.106c.539-.212.935-.708.935-1.286C10 2.568 10.568 2 11.269 2h1.462ZM12 16a4 4 0 1 0 0-8 4 4 0 0 0 0 8Z"/>
</svg>
