<svg xmlns="http://www.w3.org/2000/svg" width="24" height="24" fill="currentColor" viewBox="0 0 24 24"><path d="M12 16a.97.97 0 0 1-.713-.287A.97.97 0 0 1 11 15V7.85L9.125 9.725q-.3.3-.7.3T7.7 9.7a.93.93 0 0 1-.288-.713A.98.98 0 0 1 7.7 8.3l3.6-3.6q.15-.15.325-.213.175-.062.375-.062t.375.062a.9.9 0 0 1 .325.213l3.6 3.6q.3.3.287.712a.98.98 0 0 1-.287.688q-.3.3-.713.313a.93.93 0 0 1-.712-.288L13 7.85V15q0 .424-.287.713A.97.97 0 0 1 12 16m-6 4q-.824 0-1.412-.587A1.93 1.93 0 0 1 4 18v-2q0-.424.287-.713A.97.97 0 0 1 5 15q.424 0 .713.287Q6 15.576 6 16v2h12v-2q0-.424.288-.713A.97.97 0 0 1 19 15q.424 0 .712.287.288.288.288.713v2q0 .824-.587 1.413A1.93 1.93 0 0 1 18 20z"/></svg>