<svg xmlns="http://www.w3.org/2000/svg" width="24" height="24" fill="currentColor" viewBox="0 0 24 24">
  <path d="M9 12.031c0-.283.096-.52.288-.712A.968.968 0 0 1 10 11.03h7.15l-1.875-1.875a.96.96 0 0 1-.3-.7c0-.266.108-.508.325-.725a.93.93 0 0 1 .712-.287.977.977 0 0 1 .688.287l3.6 3.6c.1.1.17.209.212.325.042.117.063.242.063.375 0 .134-.02.259-.063.375a.877.877 0 0 1-.212.325l-3.6 3.6a.93.93 0 0 1-.712.288.977.977 0 0 1-.688-.288 1.02 1.02 0 0 1-.313-.712.931.931 0 0 1 .288-.713l1.875-1.875H10a.968.968 0 0 1-.712-.287A.968.968 0 0 1 9 12.03Zm-6-7c0-.55.196-1.02.588-1.412A1.926 1.926 0 0 1 5 3.03h6a.97.97 0 0 1 .713.288.968.968 0 0 1 .287.712.97.97 0 0 1-.287.713.968.968 0 0 1-.713.287H5v14h6a.97.97 0 0 1 .713.288.968.968 0 0 1 .287.712.97.97 0 0 1-.287.713.968.968 0 0 1-.713.287H5c-.55 0-1.02-.196-1.412-.587A1.926 1.926 0 0 1 3 19.03v-14Z"/>
</svg>
