<svg xmlns="http://www.w3.org/2000/svg" width="24" height="24" fill="currentColor" viewBox="0 0 24 24">
  <path d="M12.15 20c-1.267 0-2.392-.375-3.375-1.125-.983-.75-1.692-1.775-2.125-3.075l2.2-.95c.233.8.638 1.458 1.213 1.975.574.517 1.287.775 2.137.775.7 0 1.333-.167 1.9-.5.567-.333.85-.867.85-1.6 0-.3-.058-.575-.175-.825A2.362 2.362 0 0 0 14.3 14h2.8a4.279 4.279 0 0 1 .25 1.5c0 1.433-.513 2.542-1.538 3.325C14.788 19.608 13.567 20 12.15 20ZM3 12a.967.967 0 0 1-.712-.287A.968.968 0 0 1 2 11c0-.283.096-.52.288-.712A.967.967 0 0 1 3 10h18c.283 0 .52.096.712.288.192.191.288.429.288.712s-.096.52-.288.713A.968.968 0 0 1 21 12H3Zm9.05-8.15c1.1 0 2.063.27 2.887.813.825.541 1.463 1.37 1.913 2.487l-2.2.975a2.987 2.987 0 0 0-.838-1.3c-.408-.383-.979-.575-1.712-.575-.683 0-1.25.154-1.7.463-.45.308-.7.737-.75 1.287h-2.4c.033-1.15.487-2.13 1.363-2.937.875-.809 2.02-1.213 3.437-1.213Z"/>
</svg>
