<svg xmlns="http://www.w3.org/2000/svg" width="24" height="24" fill="currentColor" viewBox="0 0 24 24">
  <path d="M6 19a.967.967 0 0 1-.713-.288A.968.968 0 0 1 5 18a.97.97 0 0 1 .287-.712A.967.967 0 0 1 6 17h12c.283 0 .52.096.712.288.192.191.288.429.288.712s-.096.52-.288.712A.968.968 0 0 1 18 19H6Zm1.35-5.2 3.425-9.2a.882.882 0 0 1 .338-.438A.93.93 0 0 1 11.65 4h.7c.2 0 .38.054.537.162a.886.886 0 0 1 .338.438l3.425 9.225c.1.283.067.55-.1.8a.795.795 0 0 1-.7.375.89.89 0 0 1-.512-.162A.882.882 0 0 1 15 14.4l-.75-2.2H9.8L9 14.425a.838.838 0 0 1-.325.425c-.15.1-.317.15-.5.15a.84.84 0 0 1-.738-.387.815.815 0 0 1-.087-.813Zm3-3.2h3.3l-1.6-4.55h-.1l-1.6 4.55Z"/>
</svg>
