<svg xmlns="http://www.w3.org/2000/svg" width="24" height="24" fill="currentColor" viewBox="0 0 24 24"><path d="M6 19a.97.97 0 0 1-.713-.288A.97.97 0 0 1 5 18q0-.424.287-.712A.97.97 0 0 1 6 17h12q.424 0 .712.288.288.287.288.712 0 .424-.288.712A.97.97 0 0 1 18 19zm1.35-5.2 3.425-9.2a.9.9 0 0 1 .338-.437A.93.93 0 0 1 11.65 4h.7q.3 0 .537.162.238.163.338.438l3.425 9.225q.15.425-.1.8a.8.8 0 0 1-.7.375.9.9 0 0 1-.512-.162A.9.9 0 0 1 15 14.4l-.75-2.2H9.8L9 14.425a.84.84 0 0 1-.325.425q-.225.15-.5.15a.84.84 0 0 1-.738-.387.82.82 0 0 1-.087-.813m3-3.2h3.3l-1.6-4.55h-.1z"/></svg>