<svg xmlns="http://www.w3.org/2000/svg" width="24" height="24" fill="currentColor" viewBox="0 0 24 24"><path d="M4 3h16a2 2 0 0 1 2 2v12a2 2 0 0 1-2 2H6l-2.293 2.293c-.63.63-1.707.184-1.707-.707V5a2 2 0 0 1 2-2m3 7h10q.424 0 .712-.287A.97.97 0 0 0 18 9a.97.97 0 0 0-.288-.713A.97.97 0 0 0 17 8H7a.97.97 0 0 0-.713.287A.97.97 0 0 0 6 9q0 .424.287.713Q6.576 10 7 10m0 4h6q.424 0 .713-.287A.97.97 0 0 0 14 13a.97.97 0 0 0-.287-.713A.97.97 0 0 0 13 12H7a.97.97 0 0 0-.713.287A.97.97 0 0 0 6 13q0 .424.287.713Q6.576 14 7 14"/></svg>