<svg xmlns="http://www.w3.org/2000/svg" width="24" height="24" fill="currentColor" viewBox="0 0 24 24"><path d="M5 21q-.824 0-1.412-.587A1.93 1.93 0 0 1 3 19V5q0-.824.587-1.412A1.93 1.93 0 0 1 5 3h14q.824 0 1.413.587Q21 4.176 21 5v14q0 .824-.587 1.413A1.93 1.93 0 0 1 19 21zm0-2h14V5H5z"/><path d="M11 10a1 1 0 1 1 1.479.878c-.31.17-.659.413-.94.741-.286.334-.539.8-.539 1.381a1 1 0 0 0 2 .006.3.3 0 0 1 .057-.085 1.4 1.4 0 0 1 .382-.288A3 3 0 1 0 9 10a1 1 0 1 0 2 0m1.999 3.012v-.005zM12 17a1 1 0 1 0 0-2 1 1 0 0 0 0 2"/></svg>