<svg xmlns="http://www.w3.org/2000/svg" width="24" height="24" fill="currentColor" viewBox="0 0 24 24">
  <path d="M5 21c-.55 0-1.02-.196-1.413-.587A1.926 1.926 0 0 1 3 19V5c0-.55.196-1.02.587-1.413A1.926 1.926 0 0 1 5 3h14c.55 0 1.02.196 1.413.587.39.393.587.863.587 1.413v14c0 .55-.196 1.02-.587 1.413A1.926 1.926 0 0 1 19 21H5Zm0-2h14V5H5v14Z"/>
  <path d="M11 10a1 1 0 1 1 1.479.878c-.31.17-.659.413-.94.741-.286.334-.539.8-.539 1.381a1 1 0 0 0 2 .006.3.3 0 0 1 .057-.085 1.39 1.39 0 0 1 .382-.288A3 3 0 1 0 9 10a1 1 0 1 0 2 0Zm1.999 3.011v-.004.005ZM12 17a1 1 0 1 0 0-2 1 1 0 0 0 0 2Z"/>
</svg>
