<svg xmlns="http://www.w3.org/2000/svg" width="24" height="24" fill="currentColor" viewBox="0 0 24 24"><path fill-rule="evenodd" d="M5.457 2.083a1 1 0 0 0-1.414 1.414L8.04 7.494v2.25a.5.5 0 0 1-.15.356l-3.7 3.644a.5.5 0 0 0-.15.356v1.4a.5.5 0 0 0 .5.5h6.5v6a1 1 0 0 0 2 0v-6h3.506l4.497 4.497a1 1 0 0 0 1.414-1.414zM14.546 14 10.04 9.494v.25a2.5 2.5 0 0 1-.746 1.781L6.78 14z" clip-rule="evenodd"/><path d="M14.04 4v3.85l2.015 2.015a.5.5 0 0 1-.015-.12V5.257a.5.5 0 0 1 .15-.357l2.081-2.043a.5.5 0 0 0-.35-.857h-9.73l2 2z"/></svg>