<svg xmlns="http://www.w3.org/2000/svg" width="24" height="24" fill="currentColor" viewBox="0 0 24 24"><path d="M10 12q-1.65 0-2.825-1.175T6 8t1.175-2.825T10 4t2.825 1.175T14 8t-1.175 2.825T10 12m-8 6v-.8q0-.85.438-1.562.437-.713 1.162-1.088a14.8 14.8 0 0 1 3.15-1.163A13.8 13.8 0 0 1 10 13q1.65 0 3.25.387 1.6.388 3.15 1.163.724.375 1.163 1.087Q18 16.35 18 17.2v.8q0 .824-.587 1.413A1.93 1.93 0 0 1 16 20H4q-.824 0-1.412-.587A1.93 1.93 0 0 1 2 18m15-7h2v2q0 .424.288.713.287.287.712.287.424 0 .712-.287A.97.97 0 0 0 21 13v-2h2q.424 0 .712-.287A.97.97 0 0 0 24 10a.97.97 0 0 0-.288-.713A.97.97 0 0 0 23 9h-2V7a.97.97 0 0 0-.288-.713A.97.97 0 0 0 20 6a.97.97 0 0 0-.712.287A.97.97 0 0 0 19 7v2h-2a.97.97 0 0 0-.712.287A.97.97 0 0 0 16 10q0 .424.288.713.287.287.712.287"/></svg>