<svg xmlns="http://www.w3.org/2000/svg" width="24" height="24" fill="currentColor" viewBox="0 0 24 24">
  <path d="M10 12c-1.1 0-2.042-.392-2.825-1.175C6.392 10.042 6 9.1 6 8s.392-2.042 1.175-2.825C7.958 4.392 8.9 4 10 4s2.042.392 2.825 1.175C13.608 5.958 14 6.9 14 8s-.392 2.042-1.175 2.825C12.042 11.608 11.1 12 10 12Zm-8 6v-.8c0-.567.146-1.087.438-1.563A2.911 2.911 0 0 1 3.6 14.55a14.843 14.843 0 0 1 3.15-1.163A13.76 13.76 0 0 1 10 13c1.1 0 2.183.13 3.25.387 1.067.259 2.117.646 3.15 1.163.483.25.87.612 1.163 1.087.291.476.437.996.437 1.563v.8c0 .55-.196 1.02-.587 1.413A1.926 1.926 0 0 1 16 20H4c-.55 0-1.02-.196-1.413-.587A1.926 1.926 0 0 1 2 18Zm15-7h2v2c0 .283.096.52.288.713.191.191.429.287.712.287s.52-.096.712-.287A.968.968 0 0 0 21 13v-2h2a.97.97 0 0 0 .712-.287A.968.968 0 0 0 24 10a.967.967 0 0 0-.288-.713A.968.968 0 0 0 23 9h-2V7a.967.967 0 0 0-.288-.713A.968.968 0 0 0 20 6a.968.968 0 0 0-.712.287A.967.967 0 0 0 19 7v2h-2a.968.968 0 0 0-.712.287A.967.967 0 0 0 16 10c0 .283.096.52.288.713A.968.968 0 0 0 17 11Z"/>
</svg>
