<svg xmlns="http://www.w3.org/2000/svg" width="24" height="24" fill="currentColor" viewBox="0 0 24 24"><path d="M2 8a4 4 0 0 1 4-4h10a2 2 0 0 1 2 2v4.286l3.35-2.871a1 1 0 0 1 1.65.76v7.65a1 1 0 0 1-1.65.76L18 13.715V18a2 2 0 0 1-2 2H6a4 4 0 0 1-4-4zm8.7 5.15L8.5 11H9q.424 0 .713-.287A.97.97 0 0 0 10 10a.97.97 0 0 0-.287-.713A.97.97 0 0 0 9 9H6a.97.97 0 0 0-.713.287A.97.97 0 0 0 5 10v3q0 .424.287.713Q5.576 14 6 14t.713-.287A.97.97 0 0 0 7 13v-.7l3 3q.125.125.313.2a1.03 1.03 0 0 0 .774 0 .8.8 0 0 0 .313-.225l3.125-3.15a.92.92 0 0 0 .275-.675q0-.4-.3-.7a.95.95 0 0 0-.7-.275.95.95 0 0 0-.7.275z"/></svg>