<svg xmlns="http://www.w3.org/2000/svg" width="24" height="24" fill="currentColor" viewBox="0 0 24 24">
  <path d="M2 8a4 4 0 0 1 4-4h10a2 2 0 0 1 2 2v4.286l3.35-2.871a1 1 0 0 1 1.65.76v7.65a1 1 0 0 1-1.65.76L18 13.715V18a2 2 0 0 1-2 2H6a4 4 0 0 1-4-4V8Zm10.828 6.828c.2-.2.3-.436.3-.707 0-.27-.1-.506-.3-.707L11.414 12l1.414-1.414c.2-.2.3-.436.3-.707 0-.271-.1-.507-.3-.707a.969.969 0 0 0-.707-.301c-.27 0-.506.1-.707.3L10 10.587 8.586 9.172a.969.969 0 0 0-.707-.301c-.271 0-.507.1-.707.3-.2.2-.3.437-.3.708 0 .27.1.506.3.707L8.586 12l-1.414 1.414c-.2.2-.3.436-.3.707 0 .271.1.507.3.707.2.2.436.3.707.3.27 0 .506-.1.707-.3L10 13.414l1.414 1.414c.2.2.436.3.707.3.271 0 .507-.1.707-.3Z"/>
</svg>
