<svg xmlns="http://www.w3.org/2000/svg" width="24" height="24" fill="currentColor" viewBox="0 0 24 24">
  <path d="m2.747 2.753 1.602 1.602c.003 0 .006-.002.008-.003L6.006 6h-.012L16 16.006v-.012l2 2v.012l3.247 3.247a1 1 0 0 1-1.414 1.414l-2.899-2.898A1.992 1.992 0 0 1 16 20H6a4 4 0 0 1-4-4V8c0-.892.292-1.715.785-2.38L1.333 4.166a1 1 0 0 1 1.414-1.414Zm1.484 4.312A1.991 1.991 0 0 0 4 8v8a2 2 0 0 0 2 2h9.166L4.23 7.065ZM16 6H8.834l-2-2H16a2 2 0 0 1 2 2v4.286l3.35-2.871a1 1 0 0 1 1.65.76v7.65a1 1 0 0 1-1.65.76L18 13.715v1.45l-2-2V6Zm5 7.652v-3.304L19.073 12 21 13.652Z"/>
</svg>
