<svg xmlns="http://www.w3.org/2000/svg" width="24" height="24" fill="currentColor" viewBox="0 0 24 24">
  <path d="m16.1 13.3-1.45-1.45c.15-.783-.075-1.517-.675-2.2-.6-.683-1.375-.95-2.325-.8L10.2 7.4c.283-.133.57-.233.863-.3A4.2 4.2 0 0 1 12 7c1.25 0 2.313.437 3.188 1.312.874.875 1.312 1.938 1.312 3.188 0 .333-.033.646-.1.938a4.286 4.286 0 0 1-.3.862Zm3.2 3.15-1.45-1.4a10.947 10.947 0 0 0 1.688-1.588A8.898 8.898 0 0 0 20.8 11.5a9.843 9.843 0 0 0-3.588-4.013C15.654 6.496 13.917 6 12 6c-.483 0-.958.033-1.425.1a9.624 9.624 0 0 0-1.375.3L7.65 4.85A11.08 11.08 0 0 1 12 4c2.383 0 4.525.63 6.425 1.887 1.9 1.259 3.325 2.896 4.275 4.913a.81.81 0 0 1 .1.313c.017.125.025.254.025.387a1.972 1.972 0 0 1-.125.7 10.896 10.896 0 0 1-3.4 4.25Zm-.2 5.45-3.5-3.45c-.583.183-1.17.32-1.762.413-.592.091-1.205.137-1.838.137-2.383 0-4.525-.63-6.425-1.887-1.9-1.259-3.325-2.896-4.275-4.913a.813.813 0 0 1-.1-.313 2.93 2.93 0 0 1 0-.762.796.796 0 0 1 .1-.3c.35-.75.767-1.442 1.25-2.075A13.291 13.291 0 0 1 4.15 7L2.075 4.9a.933.933 0 0 1-.275-.688c0-.275.1-.512.3-.712a.948.948 0 0 1 .7-.275.95.95 0 0 1 .7.275l17 17c.183.183.28.413.288.688a.93.93 0 0 1-.288.712.948.948 0 0 1-.7.275.949.949 0 0 1-.7-.275ZM5.55 8.4a10.72 10.72 0 0 0-1.325 1.425A9.013 9.013 0 0 0 3.2 11.5a9.834 9.834 0 0 0 3.588 4.012C8.346 16.505 10.083 17 12 17c.333 0 .658-.02.975-.063.317-.041.642-.087.975-.137l-.9-.95c-.183.05-.358.088-.525.113A3.537 3.537 0 0 1 12 16c-1.25 0-2.312-.438-3.187-1.313C7.938 13.813 7.5 12.75 7.5 11.5c0-.183.013-.358.038-.525a4.55 4.55 0 0 1 .112-.525L5.55 8.4Z"/>
</svg>
