<svg xmlns="http://www.w3.org/2000/svg" width="24" height="24" fill="currentColor" viewBox="0 0 24 24"><path d="m20.958 16.374.039 3.527q0 .427-.33.756-.33.33-.756.33a16 16 0 0 1-6.57-1.105 16.2 16.2 0 0 1-5.563-3.663 16.1 16.1 0 0 1-3.653-5.573 16.3 16.3 0 0 1-1.115-6.56q0-.427.33-.757T4.095 3l3.528.039a1.07 1.07 0 0 1 1.085.93l.543 3.954q.039.271-.039.504a1.1 1.1 0 0 1-.271.426l-1.64 1.64q.505 1.008 1.154 1.909c.433.6 1.444 1.696 1.444 1.696s1.095 1.01 1.696 1.444q.9.65 1.909 1.153l1.64-1.64q.193-.193.426-.27t.504-.04l3.954.543q.406.059.668.359t.262.727"/></svg>