<svg xmlns="http://www.w3.org/2000/svg" width="24" height="24" fill="currentColor" viewBox="0 0 24 24">
  <path d="m20.958 16.374.039 3.527c0 .284-.11.536-.33.756-.22.22-.472.33-.756.33a15.97 15.97 0 0 1-6.57-1.105 16.225 16.225 0 0 1-5.563-3.663 16.084 16.084 0 0 1-3.653-5.573 16.313 16.313 0 0 1-1.115-6.56c0-.285.11-.537.33-.757.22-.22.471-.33.755-.33l3.528.04a1.069 1.069 0 0 1 1.085.93l.543 3.954c.026.18.013.349-.039.504a1.088 1.088 0 0 1-.271.426l-1.64 1.64c.337.672.721 1.308 1.154 1.909.433.6 1.444 1.696 1.444 1.696s1.095 1.01 1.696 1.444c.6.433 1.237.817 1.909 1.153l1.64-1.64a1.07 1.07 0 0 1 .426-.27c.155-.052.323-.065.504-.04l3.954.543a1.068 1.068 0 0 1 .93 1.085Z"/>
</svg>
