<svg xmlns="http://www.w3.org/2000/svg" width="24" height="24" fill="currentColor" viewBox="0 0 24 24"><path d="M3.5 3.5a1 1 0 1 0-1.414 1.414L5.172 8H5a2 2 0 0 0-2 2v4a2 2 0 0 0 2 2h2l3.293 3.293c.63.63 1.707.184 1.707-.707v-3.758l7.086 7.086A1 1 0 0 0 20.5 20.5l-2.136-2.136.003-.003-1.414-1.414-.003.003-1.414-1.414.003-.003-1.415-1.415-.002.003L12 12v-.006L7.503 7.497 7.5 7.5zm11.496 8.662 1.661 1.66c.222-.564.343-1.18.343-1.822 0-1.38-.56-2.632-1.464-3.536a1 1 0 1 0-1.414 1.414 3 3 0 0 1 .874 2.284m3.164 3.165 1.462 1.46A8.96 8.96 0 0 0 21 12a8.98 8.98 0 0 0-2.636-6.364A1 1 0 0 0 16.95 7.05 6.98 6.98 0 0 1 19 12a7 7 0 0 1-.84 3.326M8.917 6.083 12 9.166V5.414c0-.89-1.077-1.337-1.707-.707z"/></svg>