<svg width="24" height="24" viewBox="0 0 24 24" fill="none" xmlns="http://www.w3.org/2000/svg">
<path d="M13.9047 9.37839L12 5.51907L10.0953 9.37839L5.83627 9.99726L8.91812 13.0013L8.1906 17.2431L12 15.2404L15.8093 17.2431L15.0818 13.0013L18.1637 9.99726L13.9047 9.37839ZM8.76715 7.55038L11.1032 2.81696C11.47 2.07371 12.5299 2.07371 12.8967 2.81696L15.2328 7.55038L20.4564 8.30942C21.2766 8.4286 21.6042 9.43657 21.0106 10.0151L17.2308 13.6996L18.1231 18.9021C18.2632 19.719 17.4058 20.342 16.6721 19.9563L12 17.5L7.32781 19.9563C6.59418 20.342 5.73675 19.719 5.87686 18.9021L6.76916 13.6996L2.9893 10.0151C2.39578 9.43657 2.72329 8.4286 3.54351 8.30942L8.76715 7.55038Z" fill="black"/>
</svg>
