<svg xmlns="http://www.w3.org/2000/svg" width="24" height="24" fill="black" viewBox="0 0 24 24"><path d="M7.623 3.04a1.07 1.07 0 0 1 1.086.929l.542 3.954q.039.27-.038.504a1.1 1.1 0 0 1-.272.427l-1.64 1.64Q7.806 11.5 8.456 12.4c.433.601 1.444 1.697 1.444 1.697.013.012 1.098 1.014 1.696 1.444q.9.65 1.909 1.153l1.64-1.64q.194-.194.426-.27a1.1 1.1 0 0 1 .504-.04l3.953.543q.407.058.67.358.26.301.26.728l.04 3.527q0 .427-.33.756-.33.33-.756.33a16 16 0 0 1-6.57-1.105 16.2 16.2 0 0 1-5.563-3.663 16.1 16.1 0 0 1-3.653-5.573 16.3 16.3 0 0 1-1.116-6.56q0-.426.329-.756Q3.67 3 4.095 3z"/><path d="M19.964 3a1 1 0 0 1 .995.897l.005.103v3l-.005.103a1 1 0 0 1-1.99 0L18.964 7v-.605l-4.05 4.02A1 1 0 0 1 13.5 9l4.03-4h-.566l-.103-.005a1 1 0 0 1 0-1.99L16.964 3z"/></svg>