<svg xmlns="http://www.w3.org/2000/svg" width="24" height="24" fill="black"><mask id="a"><path fill-rule="evenodd" d="m4.393 13.95-.02.02-.42.42a1 1 0 0 0-.264.465l-1.414 5.657a1 1 0 0 0 1.213 1.213l5.657-1.414a1 1 0 0 0 .464-.263L21.363 8.294a2 2 0 0 0 0-2.829l-2.828-2.828a2 2 0 0 0-2.829 0zM17.12 4.052l-2.973 2.972 2.829 2.829 2.972-2.972z" clip-rule="evenodd"/></mask><path fill-rule="evenodd" d="m4.393 13.95-.02.02-.42.42a1 1 0 0 0-.264.465l-1.414 5.657a1 1 0 0 0 1.213 1.213l5.657-1.414a1 1 0 0 0 .464-.263L21.363 8.294a2 2 0 0 0 0-2.829l-2.828-2.828a2 2 0 0 0-2.829 0zM17.12 4.052l-2.973 2.972 2.829 2.829 2.972-2.972z" clip-rule="evenodd"/><path d="m4.373 13.97 1.414 1.414.01-.01zm.02-.02-1.415-1.414-.01.01zm-.44.44 1.414 1.415zm-.264.465 1.94.485zm-1.414 5.657-1.94-.485zm1.213 1.213-.485-1.94zm5.657-1.414.485 1.94zm.464-.263 1.415 1.414zM21.363 8.294 19.95 6.88zm0-2.829 1.414-1.414zm-2.828-2.828L17.12 4.05zm-2.829 0-1.414-1.414zm-1.558 4.386L12.734 5.61 11.32 7.023l1.414 1.414zm2.973-2.972 1.414-1.414-1.415-1.414-1.414 1.414zm-.144 5.8-1.415 1.415 1.415 1.414 1.414-1.414zm2.972-2.971 1.414 1.414 1.414-1.414-1.414-1.415zM5.797 15.375l.02-.02-2.848-2.81-.02.02zm-.43.43.42-.42-2.828-2.83-.42.422zm.263-.465a1 1 0 0 1-.263.465l-2.829-2.828a3 3 0 0 0-.789 1.393zm-1.414 5.657L5.63 15.34l-3.88-.97-1.415 5.657zm-1.213-1.212a1 1 0 0 1 1.213 1.212l-3.88-.97c-.55 2.197 1.44 4.187 3.637 3.638zM8.66 18.37l-5.657 1.415.97 3.88 5.657-1.414zm-.465.263a1 1 0 0 1 .465-.263l.97 3.881a3 3 0 0 0 1.394-.79zM19.95 6.88l2.828 2.828a4 4 0 0 0 0-5.657zm-2.83-2.83 2.83 2.83 2.828-2.829-2.828-2.828zm0 0 2.829-2.828a4 4 0 0 0-5.657 0zM5.807 15.365 17.12 4.05l-2.828-2.828L2.978 12.536zm9.756-6.928 2.972-2.972-2.829-2.828-2.972 2.972zm2.828 0L15.563 5.61l-2.829 2.828 2.829 2.829zm.144-2.972-2.972 2.972 2.828 2.829 2.972-2.972zm-2.829 0 2.829 2.829 2.828-2.829-2.828-2.828zM19.95 6.88 8.195 18.634l2.829 2.828L22.777 9.708z" mask="url(#a)"/></svg>