<svg xmlns="http://www.w3.org/2000/svg" width="24" height="24" fill="black" viewBox="0 0 24 24">
  <path d="M15.536 15.536a1 1 0 0 0-1.415-1.415 2.987 2.987 0 0 1-2.12.879 2.988 2.988 0 0 1-2.122-.879 1 1 0 1 0-1.414 1.415A4.987 4.987 0 0 0 12 17c1.38 0 2.632-.56 3.536-1.464ZM10 10.5a1.5 1.5 0 1 1-3 0 1.5 1.5 0 0 1 3 0Zm5.5 1.5a1.5 1.5 0 1 0 0-3 1.5 1.5 0 0 0 0 3Z"/>
  <path d="M22 12c0 5.523-4.477 10-10 10S2 17.523 2 12 6.477 2 12 2s10 4.477 10 10Zm-2 0a8 8 0 1 0-16 0 8 8 0 0 0 16 0Z"/>
</svg>
