<svg xmlns="http://www.w3.org/2000/svg" width="24" height="24" fill="black" viewBox="0 0 24 24"><path d="M7.623 3.04a1.07 1.07 0 0 1 1.086.929l.542 3.954q.039.27-.038.504a1.1 1.1 0 0 1-.272.427l-1.64 1.64Q7.806 11.5 8.456 12.4c.433.601 1.444 1.697 1.444 1.697.013.012 1.098 1.014 1.696 1.444q.9.65 1.909 1.153l1.64-1.64q.194-.194.426-.27a1.1 1.1 0 0 1 .504-.04l3.953.543q.407.058.67.358.26.301.26.728l.04 3.527q0 .427-.33.756-.33.33-.756.33a16 16 0 0 1-6.57-1.105 16.2 16.2 0 0 1-5.563-3.663 16.1 16.1 0 0 1-3.653-5.573 16.3 16.3 0 0 1-1.116-6.56q0-.426.329-.756Q3.67 3 4.095 3zM20.25 3q.405 0 .707.3.3.301.3.708t-.3.707l-1.414 1.414 1.414 1.414q.3.3.3.707t-.3.707-.707.3-.707-.3l-1.414-1.414-1.414 1.414q-.3.3-.707.3t-.707-.3T15 8.25q0-.406.3-.707l1.415-1.414L15.3 4.715q-.3-.3-.301-.707 0-.407.3-.707t.71-.301q.405 0 .707.3l1.414 1.415L19.543 3.3q.3-.3.707-.301"/></svg>