<svg xmlns="http://www.w3.org/2000/svg" width="24" height="24" fill="black" viewBox="0 0 24 24">
  <path d="M12 16a.968.968 0 0 1-.713-.287A.967.967 0 0 1 11 15V7.85L9.125 9.725c-.2.2-.433.3-.7.3-.267 0-.508-.108-.725-.325a.93.93 0 0 1-.288-.712A.977.977 0 0 1 7.7 8.3l3.6-3.6c.1-.1.208-.17.325-.212.117-.042.242-.063.375-.063s.258.02.375.063a.877.877 0 0 1 .325.212l3.6 3.6c.2.2.296.438.287.713a.977.977 0 0 1-.287.687c-.2.2-.438.304-.713.313a.93.93 0 0 1-.712-.288L13 7.85V15c0 .283-.096.52-.287.713A.968.968 0 0 1 12 16Zm-6 4c-.55 0-1.02-.196-1.412-.587A1.926 1.926 0 0 1 4 18v-2c0-.283.096-.52.287-.713A.968.968 0 0 1 5 15c.283 0 .52.096.713.287.191.192.287.43.287.713v2h12v-2a.97.97 0 0 1 .288-.713A.968.968 0 0 1 19 15a.97.97 0 0 1 .712.287c.192.192.288.43.288.713v2c0 .55-.196 1.02-.587 1.413A1.926 1.926 0 0 1 18 20H6Z"/>
</svg>
