<svg xmlns="http://www.w3.org/2000/svg" width="24" height="24" fill="black" viewBox="0 0 24 24">
  <g clip-path="url(#a)">
    <path d="M13.206 20.644a2.721 2.721 0 0 1-1.097.248 2.81 2.81 0 0 1-1.567-.495c-.153.38-.392.723-.7 1a2.797 2.797 0 0 1-1.078.604h6.141a2.837 2.837 0 0 1-.99-.51 2.755 2.755 0 0 1-.709-.847ZM6.71 16.673a.227.227 0 0 0 .067-.03c.038-.326.08-.64.13-.94-.01-.169.017-.338.08-.495.348-1.904.834-3.24 1.504-4.052a.13.13 0 0 1 .18-.018.122.122 0 0 1 .019.175 4.042 4.042 0 0 0-.204.271c-.508.743-.91 1.871-1.199 3.389h.03a.564.564 0 0 1 .166 0c.198.042.508.203.985.67.061-2.72 1.661-4.913 3.642-4.913 1.748 0 3.208 1.715 3.556 3.998.165-.322.432-.582.762-.743a.78.78 0 0 1 .254-.047 7.474 7.474 0 0 0-.948-2.342 4.034 4.034 0 0 0-.2-.272.12.12 0 0 1-.03-.09.115.115 0 0 1 .048-.083.125.125 0 0 1 .092-.028.128.128 0 0 1 .085.045c.508.624.93 1.557 1.245 2.822.678.248.696 1.361.71 2.267 0 .431 0 .877.105.99.104.114.325.09.635-.04.036-.393.053-.742.063-1.036v-1.082c0-2.475-3.266-6.755-3.266-6.755l-.378-3.218c0-2.953-2.733-2.926-2.733-2.926s-2.743-.027-2.743 2.914l-.365 3.23s-3.267 4.277-3.267 6.755v.31s-.012.299 0 .767v.227c.414.154.839.315.976.28Zm5.388-10.41c.761.069 1.975.247 2.031.613.04.282-.429.822-.523.926-.195.215-.876.92-1.49.92-.615 0-1.296-.705-1.49-.92-.093-.104-.563-.644-.525-.926.046-.374 1.273-.544 1.996-.614Z"/>
    <path d="M12.111 8.475c.333 0 .843-.33 1.298-.837.348-.384.475-.666.465-.73-.064-.126-.894-.317-1.778-.401-.856.084-1.687.275-1.75.406.091.275.252.523.467.723.457.51.965.839 1.298.839Zm.684 10.664c-.292-2.607-.023-3.146.206-3.324a.414.414 0 0 1 .4-.057c.23.11.431.271.587.47.287.304.488.495.674.391.131-.077.32-.495.507-.878.097-.206.196-.426.305-.637-.254-2.329-1.65-4.126-3.355-4.126-1.872 0-3.393 2.166-3.393 4.827v.096c.31.317.68.743 1.133 1.3.177.218.34.447.487.686a2.715 2.715 0 0 1 .29 2.257c.426.312.943.485 1.476.495.341-.001.679-.073.99-.21a2.597 2.597 0 0 1-.16-.46 6.926 6.926 0 0 1-.147-.83Z"/>
    <path d="M9.651 17.35a21.5 21.5 0 0 0-.916-1.07l-.13-.14-.132-.138c-.587-.594-.897-.757-1.06-.785a.219.219 0 0 0-.068 0 .146.146 0 0 0-.114.082v.017a.907.907 0 0 0-.058.406v.328c.034.25-.019.505-.15.723a.4.4 0 0 1-.087.072l-.053.032a.581.581 0 0 1-.107.042H6.75c-.211.037-.554-.084-.988-.248l-.127-.05c-.544-.21-1.179-.452-1.644-.452a.634.634 0 0 0-.553.232c-.34.495.421 1.273 1.036 1.901.378.39.675.694.708.921.059.421-.393.582-.792.726a1.538 1.538 0 0 0-.564.277c-.06.069-.058.116-.045.15.055.191.507.61 2.897 1.285.265.075.534.135.806.179.49.072.992.009 1.448-.183a2.638 2.638 0 0 0 1.13-.902 2.56 2.56 0 0 0 .271-.522l.05-.121c0-.042.024-.09.037-.131a2.481 2.481 0 0 0-.293-1.98 6.956 6.956 0 0 0-.475-.65Zm9.619-.17c-.212.02-.418.084-.604.186l-.277.117c-.305.113-.61.168-.807-.095a.598.598 0 0 1-.094-.227 3.549 3.549 0 0 1-.056-.592v-.322c0-.72-.026-1.586-.373-1.925a.508.508 0 0 0-.255-.139h-.038a.52.52 0 0 0-.254.035c-.3.118-.56.495-.79.935l-.109.216-.117.247-.104.226c-.223.495-.398.873-.601.99-.376.215-.704-.132-.991-.439a1.516 1.516 0 0 0-.48-.4.245.245 0 0 0-.076-.016.127.127 0 0 0-.084.03c-.158.124-.384.69-.112 3.104.03.267.075.531.137.792.035.138.08.273.137.404.018.037.036.074.056.111.02.037.033.074.054.112.208.376.51.695.879.928a2.659 2.659 0 0 0 2.504.17 2.59 2.59 0 0 0 1.003-.799c.163-.216.313-.442.45-.676 1.218-2.116 1.241-2.722 1.147-2.896a.153.153 0 0 0-.06-.058.159.159 0 0 0-.084-.018Z"/>
  </g>
  <defs>
    <clipPath id="a">
      <path d="M3.167 2.19h17.334V22H3.167z"/>
    </clipPath>
  </defs>
</svg>
