<svg xmlns="http://www.w3.org/2000/svg" width="24" height="24" fill="black" viewBox="0 0 24 24"><g clip-path="url(#a)"><path d="M10.5 6.5q.425 0 .713.287.288.288.287.713v2h2q.425 0 .713.287.288.288.287.713a.97.97 0 0 1-.287.713.97.97 0 0 1-.713.287h-2v2a.97.97 0 0 1-.287.713.97.97 0 0 1-.713.287.97.97 0 0 1-.713-.287.97.97 0 0 1-.287-.713v-2h-2a.97.97 0 0 1-.713-.287.97.97 0 0 1-.287-.713q0-.425.287-.713A.97.97 0 0 1 7.5 9.5h2v-2q0-.425.287-.713A.97.97 0 0 1 10.5 6.5"/><path fill-rule="evenodd" d="M10.5 3a7.5 7.5 0 0 1 5.963 12.049l3.244 3.244a1 1 0 1 1-1.414 1.414l-3.244-3.244A7.5 7.5 0 1 1 10.5 3m0 2a5.5 5.5 0 1 0 0 11 5.5 5.5 0 0 0 0-11" clip-rule="evenodd"/></g><defs><clipPath id="a"><path d="M0 0h24v24H0z"/></clipPath></defs></svg>