<svg xmlns="http://www.w3.org/2000/svg" width="24" height="24" fill="black" viewBox="0 0 24 24">
  <path d="M3.5 20c-.417 0-.77-.146-1.063-.438A1.447 1.447 0 0 1 2 18.5c0-.417.146-.77.438-1.063A1.446 1.446 0 0 1 3.5 17H4V6c0-.55.196-1.02.588-1.412A1.926 1.926 0 0 1 6 4h14a.97.97 0 0 1 .712.287c.192.192.288.43.288.713s-.096.52-.288.713A.968.968 0 0 1 20 6H6v11h4.5c.417 0 .77.146 1.063.438.291.291.437.645.437 1.062 0 .417-.146.77-.438 1.063A1.446 1.446 0 0 1 10.5 20h-7ZM15 20a.968.968 0 0 1-.713-.288A.968.968 0 0 1 14 19V9c0-.283.096-.52.287-.713A.968.968 0 0 1 15 8h6a.97.97 0 0 1 .712.287c.192.192.288.43.288.713v10c0 .283-.096.52-.288.712A.968.968 0 0 1 21 20h-6Zm1-3h4v-7h-4v7Z"/>
</svg>
