<svg xmlns="http://www.w3.org/2000/svg" width="24" height="24" fill="black" viewBox="0 0 24 24">
  <path d="M15.793 2.293a1 1 0 0 1 1.414 0l2 2a1 1 0 0 1 0 1.414l-2 2a1 1 0 1 1-1.414-1.414L16.086 6H5.5a2 2 0 0 0-2 2v7a1 1 0 1 1-2 0V8a4 4 0 0 1 4-4h10.586l-.293-.293a1 1 0 0 1 0-1.414ZM17.5 18H6.914l.293-.293a1 1 0 1 0-1.414-1.414l-2 2a1 1 0 0 0 0 1.414l2 2a1 1 0 0 0 1.414-1.414L6.914 20H17.5a4 4 0 0 0 4-4V9a1 1 0 1 0-2 0v7a2 2 0 0 1-2 2Z"/>
  <path d="M11.5 15a3 3 0 1 0 0-6 3 3 0 0 0 0 6Z"/>
</svg>
