<svg xmlns="http://www.w3.org/2000/svg" width="24" height="24" fill="black" viewBox="0 0 24 24">
  <path d="M8.225 8.325C8.042 8.142 7.95 7.9 7.95 7.6s.092-.542.275-.725L11.3 3.8c.1-.1.208-.17.325-.213a1.218 1.218 0 0 1 .762 0 .68.68 0 0 1 .313.213l3.1 3.1c.183.183.27.42.262.712-.008.292-.104.53-.287.713-.183.183-.425.275-.725.275s-.542-.092-.725-.275L12 6 9.65 8.35c-.183.183-.42.27-.713.262a1.007 1.007 0 0 1-.712-.287ZM12 20.575a.941.941 0 0 1-.375-.075 1.315 1.315 0 0 1-.325-.2l-3.075-3.075c-.183-.183-.275-.425-.275-.725s.092-.542.275-.725c.183-.183.425-.275.725-.275s.542.092.725.275L12 18.1l2.35-2.35c.183-.183.42-.27.713-.262.291.008.529.104.712.287.183.183.275.425.275.725s-.092.542-.275.725L12.7 20.3a1.034 1.034 0 0 1-.7.275Z"/>
</svg>
